<?xml version="1.0" encoding="UTF-8" standalone="no"?>
<!-- Created with Inkscape (http://www.inkscape.org/) -->
<svg
   xmlns:dc="http://purl.org/dc/elements/1.1/"
   xmlns:cc="http://web.resource.org/cc/"
   xmlns:rdf="http://www.w3.org/1999/02/22-rdf-syntax-ns#"
   xmlns:svg="http://www.w3.org/2000/svg"
   xmlns="http://www.w3.org/2000/svg"
   xmlns:sodipodi="http://inkscape.sourceforge.net/DTD/sodipodi-0.dtd"
   xmlns:inkscape="http://www.inkscape.org/namespaces/inkscape"
   sodipodi:docname="Height Field Generation Plan.svg"
   sodipodi:docbase="C:\Documents and Settings\Dave\My Documents\Ry's Stuff\Master's Thesis\xml\resources"
   inkscape:version="0.40+cvs"
   sodipodi:version="0.32"
   id="svg2448"
   height="10.000000cm"
   width="20.000000cm">
  <defs
     id="defs3" />
  <sodipodi:namedview
     inkscape:window-y="116"
     inkscape:window-x="88"
     inkscape:window-height="541"
     inkscape:window-width="857"
     inkscape:guide-bbox="true"
     showguides="true"
     inkscape:guide-points="true"
     guidetolerance="0.10000000cm"
     inkscape:current-layer="layer1"
     inkscape:document-units="cm"
     inkscape:cy="187.79318"
     inkscape:cx="260.88713"
     inkscape:zoom="1.0000000"
     inkscape:pageshadow="2"
     inkscape:pageopacity="0.0"
     borderopacity="1.0"
     bordercolor="#666666"
     pagecolor="#ffffff"
     id="base">
    <sodipodi:guide
       id="guide2458"
       position="355.15391"
       orientation="vertical" />
    <sodipodi:guide
       id="guide7869"
       position="36.000000"
       orientation="vertical" />
  </sodipodi:namedview>
  <metadata
     id="metadata4">
    <rdf:RDF
       id="RDF5">
      <cc:Work
         id="Work6"
         rdf:about="">
        <dc:format
           id="format7">image/svg+xml</dc:format>
        <dc:type
           rdf:resource="http://purl.org/dc/dcmitype/StillImage"
           id="type9" />
      </cc:Work>
    </rdf:RDF>
  </metadata>
  <g
     id="layer1"
     inkscape:groupmode="layer"
     inkscape:label="Layer 1">
    <g
       transform="matrix(1.431734,0.000000,0.000000,1.431734,-89.37228,-55.98536)"
       id="g7782">
      <path
         sodipodi:nodetypes="ccccc"
         id="rect2460"
         d="M 143.60788,68.928511 L 239.49237,68.928511 L 183.45123,93.101025 L 87.566742,93.101025 L 143.60788,68.928511 z "
         style="fill:#000604;fill-opacity:1.0000000;stroke-width:8.8582678;stroke-miterlimit:4.0000000;stroke-dashoffset:2.5000000" />
      <path
         sodipodi:nodetypes="cccccccccccccc"
         d="M 180.20691,83.046325 C 179.29692,86.050218 178.57907,86.865144 174.37922,86.865144 C 171.28759,86.865144 168.19599,86.865144 165.10437,86.865144 C 161.29067,86.865144 160.88365,89.814678 160.46695,89.814678 C 157.64789,89.814678 154.63939,90.213681 152.93111,88.971954 C 151.10823,87.646913 145.45270,87.567688 145.70252,87.712836 C 146.46427,87.628609 147.25258,86.522531 147.53721,85.694928 C 147.79768,84.937587 147.73794,84.736365 148.16880,84.109995 C 148.60105,83.481591 150.44574,81.622878 151.97194,81.345535 C 153.41945,81.082486 157.31903,79.890556 158.57738,79.890556 C 159.70605,79.890556 168.08341,78.872070 169.18614,78.872070 C 170.35200,78.872070 173.08957,79.526968 173.99010,80.181551 C 174.87646,80.825832 175.79961,82.364020 177.59307,82.364020 C 178.05885,82.364020 179.50092,83.046325 180.20691,83.046325 z "
         style="fill:#c0ba38;fill-opacity:1.0000000;fill-rule:evenodd;stroke:#ffffff;stroke-width:0.69845390px;stroke-linecap:butt;stroke-linejoin:miter;stroke-opacity:1.0000000"
         id="path4741" />
      <path
         id="path3221"
         d="M 150.33925,74.967731 C 150.33925,75.108185 150.33925,75.248639 150.33925,75.389093 C 150.33925,78.438943 137.85868,78.450322 135.84729,79.181350 C 133.14614,80.163072 130.36925,80.282175 127.15212,80.866798 C 125.48307,81.170101 124.45757,85.638378 129.47083,83.816332 C 132.29784,82.788873 134.86021,83.520195 136.42697,84.659056 C 139.17365,86.655580 138.33331,88.872676 142.80344,88.872676 C 146.37133,88.872676 149.32095,85.718082 150.33925,84.237694 C 152.42506,81.205390 150.96024,82.228719 156.13603,81.288160 C 158.19735,80.913574 157.29540,76.567634 157.29540,75.389093 C 157.29540,72.119207 152.14378,73.918380 150.33925,74.967731 z "
         style="fill:#3e70c9;fill-opacity:1.0000000;fill-rule:evenodd;stroke:#ffffff;stroke-width:0.69845390px;stroke-linecap:butt;stroke-linejoin:miter;stroke-opacity:1.0000000" />
      <path
         sodipodi:nodetypes="cccccccccccccccc"
         id="path3981"
         d="M 157.87507,80.445436 C 154.00686,79.039549 157.29540,77.570339 157.29540,75.810455 C 157.29540,74.050571 162.58910,74.856370 163.67186,73.282283 C 164.87744,71.529617 167.66237,71.596835 170.62800,71.596835 C 177.15376,71.596835 171.78368,74.336355 170.62800,74.546369 C 167.44122,75.125475 177.19769,74.546369 180.48252,74.546369 C 184.54407,74.546369 188.38102,74.269783 191.49642,73.703645 C 193.98363,73.251663 196.79051,73.282283 199.61191,73.282283 C 203.60031,73.282283 200.91244,76.653179 196.71352,76.653179 C 191.53507,76.653179 191.84694,77.740846 191.49642,78.759988 C 190.84366,80.657876 197.41743,79.301760 199.03224,80.866798 C 199.75256,81.564930 192.18819,83.017832 191.49642,83.394970 C 189.82468,84.306341 184.94653,83.816332 182.22157,83.816332 C 178.61462,83.816332 176.53198,81.787445 174.68573,80.445436 C 172.75556,79.042399 168.71870,79.528311 165.99057,80.024074 C 162.34682,80.686225 161.74330,81.851323 157.87507,80.445436 z "
         style="fill:#329d5c;fill-opacity:1.0000000;fill-rule:evenodd;stroke:#ffffff;stroke-width:0.69845390px;stroke-linecap:butt;stroke-linejoin:miter;stroke-opacity:1.0000000" />
    </g>
    <g
       transform="matrix(0.715867,0.000000,0.000000,0.715867,-26.68614,59.99319)"
       id="g7829">
      <path
         sodipodi:nodetypes="ccccc"
         id="path7831"
         d="M 143.60788,68.928511 L 239.49237,68.928511 L 183.45123,93.101025 L 87.566742,93.101025 L 143.60788,68.928511 z "
         style="fill:#000604;fill-opacity:1.0000000;stroke-width:8.8582678;stroke-miterlimit:4.0000000;stroke-dashoffset:2.5000000" />
      <path
         sodipodi:nodetypes="cccccccccccccc"
         d="M 180.20691,83.046325 C 179.29692,86.050218 178.57907,86.865144 174.37922,86.865144 C 171.28759,86.865144 168.19599,86.865144 165.10437,86.865144 C 161.29067,86.865144 160.88365,89.814678 160.46695,89.814678 C 157.64789,89.814678 154.63939,90.213681 152.93111,88.971954 C 151.10823,87.646913 145.45270,87.567688 145.70252,87.712836 C 146.46427,87.628609 147.25258,86.522531 147.53721,85.694928 C 147.79768,84.937587 147.73794,84.736365 148.16880,84.109995 C 148.60105,83.481591 150.44574,81.622878 151.97194,81.345535 C 153.41945,81.082486 157.31903,79.890556 158.57738,79.890556 C 159.70605,79.890556 168.08341,78.872070 169.18614,78.872070 C 170.35200,78.872070 173.08957,79.526968 173.99010,80.181551 C 174.87646,80.825832 175.79961,82.364020 177.59307,82.364020 C 178.05885,82.364020 179.50092,83.046325 180.20691,83.046325 z "
         style="fill:#c0ba38;fill-opacity:1.0000000;fill-rule:evenodd;stroke:#ffffff;stroke-width:0.69845390px;stroke-linecap:butt;stroke-linejoin:miter;stroke-opacity:1.0000000"
         id="path7833" />
      <path
         id="path7835"
         d="M 150.33925,74.967731 C 150.33925,75.108185 150.33925,75.248639 150.33925,75.389093 C 150.33925,78.438943 137.85868,78.450322 135.84729,79.181350 C 133.14614,80.163072 130.36925,80.282175 127.15212,80.866798 C 125.48307,81.170101 124.45757,85.638378 129.47083,83.816332 C 132.29784,82.788873 134.86021,83.520195 136.42697,84.659056 C 139.17365,86.655580 138.33331,88.872676 142.80344,88.872676 C 146.37133,88.872676 149.32095,85.718082 150.33925,84.237694 C 152.42506,81.205390 150.96024,82.228719 156.13603,81.288160 C 158.19735,80.913574 157.29540,76.567634 157.29540,75.389093 C 157.29540,72.119207 152.14378,73.918380 150.33925,74.967731 z "
         style="fill:#3e70c9;fill-opacity:1.0000000;fill-rule:evenodd;stroke:#ffffff;stroke-width:0.69845390px;stroke-linecap:butt;stroke-linejoin:miter;stroke-opacity:1.0000000" />
      <path
         sodipodi:nodetypes="cccccccccccccccc"
         id="path7837"
         d="M 157.87507,80.445436 C 154.00686,79.039549 157.29540,77.570339 157.29540,75.810455 C 157.29540,74.050571 162.58910,74.856370 163.67186,73.282283 C 164.87744,71.529617 167.66237,71.596835 170.62800,71.596835 C 177.15376,71.596835 171.78368,74.336355 170.62800,74.546369 C 167.44122,75.125475 177.19769,74.546369 180.48252,74.546369 C 184.54407,74.546369 188.38102,74.269783 191.49642,73.703645 C 193.98363,73.251663 196.79051,73.282283 199.61191,73.282283 C 203.60031,73.282283 200.91244,76.653179 196.71352,76.653179 C 191.53507,76.653179 191.84694,77.740846 191.49642,78.759988 C 190.84366,80.657876 197.41743,79.301760 199.03224,80.866798 C 199.75256,81.564930 192.18819,83.017832 191.49642,83.394970 C 189.82468,84.306341 184.94653,83.816332 182.22157,83.816332 C 178.61462,83.816332 176.53198,81.787445 174.68573,80.445436 C 172.75556,79.042399 168.71870,79.528311 165.99057,80.024074 C 162.34682,80.686225 161.74330,81.851323 157.87507,80.445436 z "
         style="fill:#329d5c;fill-opacity:1.0000000;fill-rule:evenodd;stroke:#ffffff;stroke-width:0.69845390px;stroke-linecap:butt;stroke-linejoin:miter;stroke-opacity:1.0000000" />
    </g>
    <g
       transform="matrix(0.357934,0.000000,0.000000,0.357934,4.656886,142.7312)"
       id="g7839">
      <path
         sodipodi:nodetypes="ccccc"
         id="path7841"
         d="M 143.60788,68.928511 L 239.49237,68.928511 L 183.45123,93.101025 L 87.566742,93.101025 L 143.60788,68.928511 z "
         style="fill:#000604;fill-opacity:1.0000000;stroke-width:8.8582678;stroke-miterlimit:4.0000000;stroke-dashoffset:2.5000000" />
      <path
         sodipodi:nodetypes="cccccccccccccc"
         d="M 180.20691,83.046325 C 179.29692,86.050218 178.57907,86.865144 174.37922,86.865144 C 171.28759,86.865144 168.19599,86.865144 165.10437,86.865144 C 161.29067,86.865144 160.88365,89.814678 160.46695,89.814678 C 157.64789,89.814678 154.63939,90.213681 152.93111,88.971954 C 151.10823,87.646913 145.45270,87.567688 145.70252,87.712836 C 146.46427,87.628609 147.25258,86.522531 147.53721,85.694928 C 147.79768,84.937587 147.73794,84.736365 148.16880,84.109995 C 148.60105,83.481591 150.44574,81.622878 151.97194,81.345535 C 153.41945,81.082486 157.31903,79.890556 158.57738,79.890556 C 159.70605,79.890556 168.08341,78.872070 169.18614,78.872070 C 170.35200,78.872070 173.08957,79.526968 173.99010,80.181551 C 174.87646,80.825832 175.79961,82.364020 177.59307,82.364020 C 178.05885,82.364020 179.50092,83.046325 180.20691,83.046325 z "
         style="fill:#c0ba38;fill-opacity:1.0000000;fill-rule:evenodd;stroke:#ffffff;stroke-width:0.69845390px;stroke-linecap:butt;stroke-linejoin:miter;stroke-opacity:1.0000000"
         id="path7843" />
      <path
         id="path7845"
         d="M 150.33925,74.967731 C 150.33925,75.108185 150.33925,75.248639 150.33925,75.389093 C 150.33925,78.438943 137.85868,78.450322 135.84729,79.181350 C 133.14614,80.163072 130.36925,80.282175 127.15212,80.866798 C 125.48307,81.170101 124.45757,85.638378 129.47083,83.816332 C 132.29784,82.788873 134.86021,83.520195 136.42697,84.659056 C 139.17365,86.655580 138.33331,88.872676 142.80344,88.872676 C 146.37133,88.872676 149.32095,85.718082 150.33925,84.237694 C 152.42506,81.205390 150.96024,82.228719 156.13603,81.288160 C 158.19735,80.913574 157.29540,76.567634 157.29540,75.389093 C 157.29540,72.119207 152.14378,73.918380 150.33925,74.967731 z "
         style="fill:#3e70c9;fill-opacity:1.0000000;fill-rule:evenodd;stroke:#ffffff;stroke-width:0.69845390px;stroke-linecap:butt;stroke-linejoin:miter;stroke-opacity:1.0000000" />
      <path
         sodipodi:nodetypes="cccccccccccccccc"
         id="path7847"
         d="M 157.87507,80.445436 C 154.00686,79.039549 157.29540,77.570339 157.29540,75.810455 C 157.29540,74.050571 162.58910,74.856370 163.67186,73.282283 C 164.87744,71.529617 167.66237,71.596835 170.62800,71.596835 C 177.15376,71.596835 171.78368,74.336355 170.62800,74.546369 C 167.44122,75.125475 177.19769,74.546369 180.48252,74.546369 C 184.54407,74.546369 188.38102,74.269783 191.49642,73.703645 C 193.98363,73.251663 196.79051,73.282283 199.61191,73.282283 C 203.60031,73.282283 200.91244,76.653179 196.71352,76.653179 C 191.53507,76.653179 191.84694,77.740846 191.49642,78.759988 C 190.84366,80.657876 197.41743,79.301760 199.03224,80.866798 C 199.75256,81.564930 192.18819,83.017832 191.49642,83.394970 C 189.82468,84.306341 184.94653,83.816332 182.22157,83.816332 C 178.61462,83.816332 176.53198,81.787445 174.68573,80.445436 C 172.75556,79.042399 168.71870,79.528311 165.99057,80.024074 C 162.34682,80.686225 161.74330,81.851323 157.87507,80.445436 z "
         style="fill:#329d5c;fill-opacity:1.0000000;fill-rule:evenodd;stroke:#ffffff;stroke-width:0.69845390px;stroke-linecap:butt;stroke-linejoin:miter;stroke-opacity:1.0000000" />
    </g>
    <g
       transform="matrix(0.178967,0.000000,0.000000,0.178967,20.32844,213.7987)"
       id="g7849">
      <path
         sodipodi:nodetypes="ccccc"
         id="path7851"
         d="M 143.60788,68.928511 L 239.49237,68.928511 L 183.45123,93.101025 L 87.566742,93.101025 L 143.60788,68.928511 z "
         style="fill:#000604;fill-opacity:1.0000000;stroke-width:8.8582678;stroke-miterlimit:4.0000000;stroke-dashoffset:2.5000000" />
      <path
         sodipodi:nodetypes="cccccccccccccc"
         d="M 180.20691,83.046325 C 179.29692,86.050218 178.57907,86.865144 174.37922,86.865144 C 171.28759,86.865144 168.19599,86.865144 165.10437,86.865144 C 161.29067,86.865144 160.88365,89.814678 160.46695,89.814678 C 157.64789,89.814678 154.63939,90.213681 152.93111,88.971954 C 151.10823,87.646913 145.45270,87.567688 145.70252,87.712836 C 146.46427,87.628609 147.25258,86.522531 147.53721,85.694928 C 147.79768,84.937587 147.73794,84.736365 148.16880,84.109995 C 148.60105,83.481591 150.44574,81.622878 151.97194,81.345535 C 153.41945,81.082486 157.31903,79.890556 158.57738,79.890556 C 159.70605,79.890556 168.08341,78.872070 169.18614,78.872070 C 170.35200,78.872070 173.08957,79.526968 173.99010,80.181551 C 174.87646,80.825832 175.79961,82.364020 177.59307,82.364020 C 178.05885,82.364020 179.50092,83.046325 180.20691,83.046325 z "
         style="fill:#c0ba38;fill-opacity:1.0000000;fill-rule:evenodd;stroke:#ffffff;stroke-width:0.69845390px;stroke-linecap:butt;stroke-linejoin:miter;stroke-opacity:1.0000000"
         id="path7853" />
      <path
         id="path7855"
         d="M 150.33925,74.967731 C 150.33925,75.108185 150.33925,75.248639 150.33925,75.389093 C 150.33925,78.438943 137.85868,78.450322 135.84729,79.181350 C 133.14614,80.163072 130.36925,80.282175 127.15212,80.866798 C 125.48307,81.170101 124.45757,85.638378 129.47083,83.816332 C 132.29784,82.788873 134.86021,83.520195 136.42697,84.659056 C 139.17365,86.655580 138.33331,88.872676 142.80344,88.872676 C 146.37133,88.872676 149.32095,85.718082 150.33925,84.237694 C 152.42506,81.205390 150.96024,82.228719 156.13603,81.288160 C 158.19735,80.913574 157.29540,76.567634 157.29540,75.389093 C 157.29540,72.119207 152.14378,73.918380 150.33925,74.967731 z "
         style="fill:#3e70c9;fill-opacity:1.0000000;fill-rule:evenodd;stroke:#ffffff;stroke-width:0.69845390px;stroke-linecap:butt;stroke-linejoin:miter;stroke-opacity:1.0000000" />
      <path
         sodipodi:nodetypes="cccccccccccccccc"
         id="path7857"
         d="M 157.87507,80.445436 C 154.00686,79.039549 157.29540,77.570339 157.29540,75.810455 C 157.29540,74.050571 162.58910,74.856370 163.67186,73.282283 C 164.87744,71.529617 167.66237,71.596835 170.62800,71.596835 C 177.15376,71.596835 171.78368,74.336355 170.62800,74.546369 C 167.44122,75.125475 177.19769,74.546369 180.48252,74.546369 C 184.54407,74.546369 188.38102,74.269783 191.49642,73.703645 C 193.98363,73.251663 196.79051,73.282283 199.61191,73.282283 C 203.60031,73.282283 200.91244,76.653179 196.71352,76.653179 C 191.53507,76.653179 191.84694,77.740846 191.49642,78.759988 C 190.84366,80.657876 197.41743,79.301760 199.03224,80.866798 C 199.75256,81.564930 192.18819,83.017832 191.49642,83.394970 C 189.82468,84.306341 184.94653,83.816332 182.22157,83.816332 C 178.61462,83.816332 176.53198,81.787445 174.68573,80.445436 C 172.75556,79.042399 168.71870,79.528311 165.99057,80.024074 C 162.34682,80.686225 161.74330,81.851323 157.87507,80.445436 z "
         style="fill:#329d5c;fill-opacity:1.0000000;fill-rule:evenodd;stroke:#ffffff;stroke-width:0.69845390px;stroke-linecap:butt;stroke-linejoin:miter;stroke-opacity:1.0000000" />
    </g>
  </g>
</svg>
