<?xml version="1.0" encoding="UTF-8" standalone="no"?>
<!-- Created with Inkscape (http://www.inkscape.org/) -->
<svg
   xmlns:dc="http://purl.org/dc/elements/1.1/"
   xmlns:cc="http://web.resource.org/cc/"
   xmlns:rdf="http://www.w3.org/1999/02/22-rdf-syntax-ns#"
   xmlns:svg="http://www.w3.org/2000/svg"
   xmlns="http://www.w3.org/2000/svg"
   xmlns:sodipodi="http://sodipodi.sourceforge.net/DTD/sodipodi-0.dtd"
   xmlns:inkscape="http://www.inkscape.org/namespaces/inkscape"
   height="180"
   width="315"
   id="svg2"
   sodipodi:version="0.32"
   inkscape:version="0.43+devel"
   sodipodi:docname="Boundary Refinement.svg"
   sodipodi:docbase="C:\Development\projects\terrainosaurus\doc\Master's Thesis\src\resources"
   version="1.0">
  <defs
     id="defs3">
    <marker
       inkscape:stockid="Dot_l"
       orient="auto"
       refY="0"
       refX="0"
       id="Dot_l"
       style="overflow:visible">
      <path
         id="path3005"
         d="M -2.5,-1 C -2.5,1.76 -4.74,4 -7.5,4 C -10.26,4 -12.5,1.76 -12.5,-1 C -12.5,-3.76 -10.26,-6 -7.5,-6 C -4.74,-6 -2.5,-3.76 -2.5,-1 z "
         style="fill-rule:evenodd;stroke:black;stroke-width:1pt;marker-start:none;marker-end:none"
         transform="matrix(0.8,0,0,0.8,5.92,0.8)" />
    </marker>
    <marker
       inkscape:stockid="Arrow2Lend"
       orient="auto"
       refY="0"
       refX="0"
       id="Arrow2Lend"
       style="overflow:visible">
      <path
         sodipodi:nodetypes="cccc"
         id="path2346"
         style="font-size:12px;fill-rule:evenodd;stroke-width:0.625;stroke-linejoin:round"
         d="M 8.7185878,4.0337352 L -2.2072895,0.016013256 L 8.7185884,-4.0017078 C 6.97309,-1.6296469 6.9831476,1.6157441 8.7185878,4.0337352 z "
         transform="matrix(-1.1,0,0,-1.1,5.5,0)" />
    </marker>
  </defs>
  <sodipodi:namedview
     inkscape:window-y="-4"
     inkscape:window-x="-4"
     inkscape:window-height="1134"
     inkscape:window-width="1920"
     gridtolerance="0.010000000cm"
     gridoriginx="0.00000000cm"
     gridoriginy="0.00000000cm"
     gridspacingx="0.10000000cm"
     gridspacingy="0.10000000cm"
     guidetolerance="0.10000000cm"
     inkscape:guide-points="true"
     inkscape:current-layer="layer1"
     inkscape:document-units="px"
     inkscape:cy="147.94752"
     inkscape:cx="343.81664"
     inkscape:zoom="2.4275619"
     inkscape:pageshadow="2"
     inkscape:pageopacity="0.0"
     borderopacity="1.0"
     bordercolor="#666666"
     pagecolor="#ffffff"
     id="base"
     inkscape:object-nodes="true"
     inkscape:object-points="true"
     inkscape:object-bbox="true"
     width="3.5in"
     height="2in"
     units="in" />
  <metadata
     id="metadata4">
    <rdf:RDF>
      <cc:Work
         rdf:about="">
        <dc:format>image/svg+xml</dc:format>
        <dc:type
           rdf:resource="http://purl.org/dc/dcmitype/StillImage" />
      </cc:Work>
    </rdf:RDF>
  </metadata>
  <g
     id="layer1"
     inkscape:groupmode="layer"
     inkscape:label="Layer 1">
    <path
       id="path1468"
       d="M 258.27995,23.141564 C 284.28253,30.717695 290.64173,63.759214 281.47395,90.129169"
       style="fill:none;fill-opacity:0.75;fill-rule:evenodd;stroke:black;stroke-width:1.00000012px;stroke-linecap:butt;stroke-linejoin:miter;marker-end:url(#Arrow2Lend);stroke-opacity:1"
       sodipodi:nodetypes="cc" />
    <g
       id="g3685"
       transform="matrix(0.453264,0.891376,-0.891376,0.453264,217.5918,-68.02767)">
      <path
         id="path2007"
         d="M 22.066332,230.93278 L 87.988301,15.320061"
         style="fill:none;fill-opacity:0.75;fill-rule:evenodd;stroke:black;stroke-width:0.99999952px;stroke-linecap:butt;stroke-linejoin:miter;marker-end:none;stroke-opacity:1" />
      <path
         transform="matrix(0.450576,-0.190486,0.189099,0.45388,-77.55198,246.2508)"
         d="M 207.04624 47.933544 A 5.5218725 5.5218725 0 1 1  196.0025,47.933544 A 5.5218725 5.5218725 0 1 1  207.04624 47.933544 z"
         sodipodi:ry="5.5218725"
         sodipodi:rx="5.5218725"
         sodipodi:cy="47.933544"
         sodipodi:cx="201.52437"
         id="path3074"
         style="fill:red;fill-opacity:1;fill-rule:evenodd;stroke:black;stroke-width:1.62557805;stroke-linecap:round;stroke-linejoin:miter;stroke-miterlimit:4;stroke-dasharray:none;stroke-dashoffset:0;stroke-opacity:1"
         sodipodi:type="arc" />
      <path
         transform="matrix(0.450576,-0.190486,0.189099,0.45388,-11.87793,31.95155)"
         d="M 207.04624 47.933544 A 5.5218725 5.5218725 0 1 1  196.0025,47.933544 A 5.5218725 5.5218725 0 1 1  207.04624 47.933544 z"
         sodipodi:ry="5.5218725"
         sodipodi:rx="5.5218725"
         sodipodi:cy="47.933544"
         sodipodi:cx="201.52437"
         id="path3604"
         style="fill:red;fill-opacity:1;fill-rule:evenodd;stroke:black;stroke-width:1.62557805;stroke-linecap:round;stroke-linejoin:miter;stroke-miterlimit:4;stroke-dasharray:none;stroke-dashoffset:0;stroke-opacity:1"
         sodipodi:type="arc" />
    </g>
    <g
       id="g3671"
       transform="matrix(0.453264,0.891376,-0.891376,0.453264,213.8569,-204.0452)">
      <path
         sodipodi:nodetypes="ccccccccccc"
         id="path3611"
         d="M 244.47444,290.3606 L 272.49703,274.80846 L 269.8691,247.8552 L 259.44914,222.04571 L 276.68974,202.74618 L 282.84713,175.27995 L 263.53344,152.86422 L 269.498,126.07738 L 296.37456,122.211 L 296.9742,96.373417 L 309.4688,76.152793"
         style="fill:none;fill-opacity:0.75;fill-rule:evenodd;stroke:black;stroke-width:0.99999952px;stroke-linecap:butt;stroke-linejoin:miter;stroke-opacity:1" />
      <path
         sodipodi:type="arc"
         style="fill:red;fill-opacity:1;fill-rule:evenodd;stroke:black;stroke-width:1.62557805;stroke-linecap:round;stroke-linejoin:miter;stroke-miterlimit:4;stroke-dasharray:none;stroke-dashoffset:0;stroke-opacity:1"
         id="path3617"
         sodipodi:cx="201.52437"
         sodipodi:cy="47.933544"
         sodipodi:rx="5.5218725"
         sodipodi:ry="5.5218725"
         d="M 207.04624 47.933544 A 5.5218725 5.5218725 0 1 1  196.0025,47.933544 A 5.5218725 5.5218725 0 1 1  207.04624 47.933544 z"
         transform="matrix(0.450576,-0.190486,0.189099,0.45388,144.7301,306.9243)" />
      <path
         sodipodi:type="arc"
         style="fill:red;fill-opacity:1;fill-rule:evenodd;stroke:black;stroke-width:1.62557805;stroke-linecap:round;stroke-linejoin:miter;stroke-miterlimit:4;stroke-dasharray:none;stroke-dashoffset:0;stroke-opacity:1"
         id="path3619"
         sodipodi:cx="201.52437"
         sodipodi:cy="47.933544"
         sodipodi:rx="5.5218725"
         sodipodi:ry="5.5218725"
         d="M 207.04624 47.933544 A 5.5218725 5.5218725 0 1 1  196.0025,47.933544 A 5.5218725 5.5218725 0 1 1  207.04624 47.933544 z"
         transform="matrix(0.450576,-0.190486,0.189099,0.45388,209.78,92.38674)" />
      <path
         transform="matrix(0.450576,-0.190486,0.189099,0.45388,197.4404,112.7183)"
         d="M 207.04624 47.933544 A 5.5218725 5.5218725 0 1 1  196.0025,47.933544 A 5.5218725 5.5218725 0 1 1  207.04624 47.933544 z"
         sodipodi:ry="5.5218725"
         sodipodi:rx="5.5218725"
         sodipodi:cy="47.933544"
         sodipodi:cx="201.52437"
         id="path3624"
         style="fill:#003bff;fill-opacity:1;fill-rule:evenodd;stroke:black;stroke-width:1.62557805;stroke-linecap:round;stroke-linejoin:miter;stroke-miterlimit:4;stroke-dasharray:none;stroke-dashoffset:0;stroke-opacity:1"
         sodipodi:type="arc" />
      <path
         sodipodi:type="arc"
         style="fill:#003bff;fill-opacity:1;fill-rule:evenodd;stroke:black;stroke-width:1.62557805;stroke-linecap:round;stroke-linejoin:miter;stroke-miterlimit:4;stroke-dasharray:none;stroke-dashoffset:0;stroke-opacity:1"
         id="path3626"
         sodipodi:cx="201.52437"
         sodipodi:cy="47.933544"
         sodipodi:rx="5.5218725"
         sodipodi:ry="5.5218725"
         d="M 207.04624 47.933544 A 5.5218725 5.5218725 0 1 1  196.0025,47.933544 A 5.5218725 5.5218725 0 1 1  207.04624 47.933544 z"
         transform="matrix(0.450576,-0.190486,0.189099,0.45388,196.5357,138.5997)" />
      <path
         transform="matrix(0.450576,-0.190486,0.189099,0.45388,170.5503,143.4163)"
         d="M 207.04624 47.933544 A 5.5218725 5.5218725 0 1 1  196.0025,47.933544 A 5.5218725 5.5218725 0 1 1  207.04624 47.933544 z"
         sodipodi:ry="5.5218725"
         sodipodi:rx="5.5218725"
         sodipodi:cy="47.933544"
         sodipodi:cx="201.52437"
         id="path3628"
         style="fill:#003bff;fill-opacity:1;fill-rule:evenodd;stroke:black;stroke-width:1.62557805;stroke-linecap:round;stroke-linejoin:miter;stroke-miterlimit:4;stroke-dasharray:none;stroke-dashoffset:0;stroke-opacity:1"
         sodipodi:type="arc" />
      <path
         sodipodi:type="arc"
         style="fill:#003bff;fill-opacity:1;fill-rule:evenodd;stroke:black;stroke-width:1.62557805;stroke-linecap:round;stroke-linejoin:miter;stroke-miterlimit:4;stroke-dasharray:none;stroke-dashoffset:0;stroke-opacity:1"
         id="path3630"
         sodipodi:cx="201.52437"
         sodipodi:cy="47.933544"
         sodipodi:rx="5.5218725"
         sodipodi:ry="5.5218725"
         d="M 207.04624 47.933544 A 5.5218725 5.5218725 0 1 1  196.0025,47.933544 A 5.5218725 5.5218725 0 1 1  207.04624 47.933544 z"
         transform="matrix(0.450576,-0.190486,0.189099,0.45388,164.3328,169.0217)" />
      <path
         transform="matrix(0.450576,-0.190486,0.189099,0.45388,181.7268,191.9121)"
         d="M 207.04624 47.933544 A 5.5218725 5.5218725 0 1 1  196.0025,47.933544 A 5.5218725 5.5218725 0 1 1  207.04624 47.933544 z"
         sodipodi:ry="5.5218725"
         sodipodi:rx="5.5218725"
         sodipodi:cy="47.933544"
         sodipodi:cx="201.52437"
         id="path3632"
         style="fill:#003bff;fill-opacity:1;fill-rule:evenodd;stroke:black;stroke-width:1.62557805;stroke-linecap:round;stroke-linejoin:miter;stroke-miterlimit:4;stroke-dasharray:none;stroke-dashoffset:0;stroke-opacity:1"
         sodipodi:type="arc" />
      <path
         sodipodi:type="arc"
         style="fill:#003bff;fill-opacity:1;fill-rule:evenodd;stroke:black;stroke-width:1.62557805;stroke-linecap:round;stroke-linejoin:miter;stroke-miterlimit:4;stroke-dasharray:none;stroke-dashoffset:0;stroke-opacity:1"
         id="path3634"
         sodipodi:cx="201.52437"
         sodipodi:cy="47.933544"
         sodipodi:rx="5.5218725"
         sodipodi:ry="5.5218725"
         d="M 207.04624 47.933544 A 5.5218725 5.5218725 0 1 1  196.0025,47.933544 A 5.5218725 5.5218725 0 1 1  207.04624 47.933544 z"
         transform="matrix(0.450576,-0.190486,0.189099,0.45388,176.1985,218.7984)" />
      <path
         transform="matrix(0.450576,-0.190486,0.189099,0.45388,160.6657,238.8049)"
         d="M 207.04624 47.933544 A 5.5218725 5.5218725 0 1 1  196.0025,47.933544 A 5.5218725 5.5218725 0 1 1  207.04624 47.933544 z"
         sodipodi:ry="5.5218725"
         sodipodi:rx="5.5218725"
         sodipodi:cy="47.933544"
         sodipodi:cx="201.52437"
         id="path3636"
         style="fill:#003bff;fill-opacity:1;fill-rule:evenodd;stroke:black;stroke-width:1.62557805;stroke-linecap:round;stroke-linejoin:miter;stroke-miterlimit:4;stroke-dasharray:none;stroke-dashoffset:0;stroke-opacity:1"
         sodipodi:type="arc" />
      <path
         sodipodi:type="arc"
         style="fill:#003bff;fill-opacity:1;fill-rule:evenodd;stroke:black;stroke-width:1.62557805;stroke-linecap:round;stroke-linejoin:miter;stroke-miterlimit:4;stroke-dasharray:none;stroke-dashoffset:0;stroke-opacity:1"
         id="path3638"
         sodipodi:cx="201.52437"
         sodipodi:cy="47.933544"
         sodipodi:rx="5.5218725"
         sodipodi:ry="5.5218725"
         d="M 207.04624 47.933544 A 5.5218725 5.5218725 0 1 1  196.0025,47.933544 A 5.5218725 5.5218725 0 1 1  207.04624 47.933544 z"
         transform="matrix(0.450576,-0.190486,0.189099,0.45388,169.5326,263.322)" />
      <path
         transform="matrix(0.450576,-0.190486,0.189099,0.45388,171.7419,291.3379)"
         d="M 207.04624 47.933544 A 5.5218725 5.5218725 0 1 1  196.0025,47.933544 A 5.5218725 5.5218725 0 1 1  207.04624 47.933544 z"
         sodipodi:ry="5.5218725"
         sodipodi:rx="5.5218725"
         sodipodi:cy="47.933544"
         sodipodi:cx="201.52437"
         id="path3640"
         style="fill:#003bff;fill-opacity:1;fill-rule:evenodd;stroke:black;stroke-width:1.62557805;stroke-linecap:round;stroke-linejoin:miter;stroke-miterlimit:4;stroke-dasharray:none;stroke-dashoffset:0;stroke-opacity:1"
         sodipodi:type="arc" />
    </g>
    <text
       xml:space="preserve"
       style="font-size:10px;font-style:normal;font-variant:normal;font-weight:normal;font-stretch:normal;text-align:start;line-height:125%;writing-mode:lr-tb;text-anchor:start;fill:black;fill-opacity:1;stroke:none;stroke-width:1px;stroke-linecap:butt;stroke-linejoin:miter;stroke-opacity:1;font-family:sans"
       x="29.659388"
       y="31.077154"
       id="text10283"
       sodipodi:linespacing="125%"><tspan
         sodipodi:role="line"
         id="tspan10285"
         x="29.659388"
         y="31.077154">Original Boundary</tspan></text>
    <text
       xml:space="preserve"
       style="font-size:10px;font-style:normal;font-variant:normal;font-weight:normal;font-stretch:normal;text-align:start;line-height:125%;writing-mode:lr-tb;text-anchor:start;fill:black;fill-opacity:1;stroke:none;stroke-width:1px;stroke-linecap:butt;stroke-linejoin:miter;stroke-opacity:1;font-family:sans"
       x="75.796211"
       y="114.28822"
       id="text10287"
       sodipodi:linespacing="125%"><tspan
         sodipodi:role="line"
         id="tspan10289"
         x="75.796211"
         y="114.28822">Refined Boundary</tspan></text>
  </g>
</svg>
