<?xml version="1.0" encoding="UTF-8" standalone="no"?>
<!-- Created with Inkscape (http://www.inkscape.org/) -->
<svg
   xmlns:dc="http://purl.org/dc/elements/1.1/"
   xmlns:cc="http://web.resource.org/cc/"
   xmlns:rdf="http://www.w3.org/1999/02/22-rdf-syntax-ns#"
   xmlns:svg="http://www.w3.org/2000/svg"
   xmlns="http://www.w3.org/2000/svg"
   xmlns:sodipodi="http://sodipodi.sourceforge.net/DTD/sodipodi-0.dtd"
   xmlns:inkscape="http://www.inkscape.org/namespaces/inkscape"
   width="225"
   height="180"
   id="svg3311"
   sodipodi:version="0.32"
   inkscape:version="0.44.1"
   version="1.0"
   sodipodi:docbase="C:\Development\projects\terrainosaurus\doc\Master's Thesis\src\resources"
   sodipodi:docname="Implementation - Map.svg">
  <defs
     id="defs3313">
    <marker
       inkscape:stockid="Arrow1Mend"
       orient="auto"
       refY="0"
       refX="0"
       id="Arrow1Mend"
       style="overflow:visible">
      <path
         id="path20138"
         d="M 0,0 L 5,-5 L -12.5,0 L 5,5 L 0,0 z "
         style="fill-rule:evenodd;stroke:black;stroke-width:1pt;marker-start:none"
         transform="matrix(-0.4,0,0,-0.4,-4,0)" />
    </marker>
  </defs>
  <sodipodi:namedview
     id="base"
     pagecolor="#ffffff"
     bordercolor="#666666"
     borderopacity="1.0"
     gridtolerance="10000"
     guidetolerance="10"
     objecttolerance="10"
     inkscape:pageopacity="0.0"
     inkscape:pageshadow="2"
     inkscape:zoom="2.8"
     inkscape:cx="197.17535"
     inkscape:cy="111.13495"
     inkscape:document-units="px"
     inkscape:current-layer="layer1"
     width="2.5in"
     height="2in"
     units="in"
     inkscape:window-width="909"
     inkscape:window-height="844"
     inkscape:window-x="81"
     inkscape:window-y="105" />
  <metadata
     id="metadata3316">
    <rdf:RDF>
      <cc:Work
         rdf:about="">
        <dc:format>image/svg+xml</dc:format>
        <dc:type
           rdf:resource="http://purl.org/dc/dcmitype/StillImage" />
      </cc:Work>
    </rdf:RDF>
  </metadata>
  <g
     inkscape:label="Layer 1"
     inkscape:groupmode="layer"
     id="layer1"
     transform="translate(-171.8989,-104.0187)">
    <g
       style="display:inline"
       id="g33021"
       transform="matrix(0.300503,0,0,0.300503,190.8183,-65.53992)">
      <g
         style="display:inline"
         transform="matrix(2.376981,0,0,2.376981,-46.97222,433.1616)"
         id="g32991">
        <rect
           ry="10"
           rx="10.000001"
           y="78.475967"
           x="29.320621"
           height="206.86026"
           width="247.80132"
           id="rect32993"
           style="opacity:1;fill:#f5a750;fill-opacity:1;stroke:black;stroke-width:1.98424029;stroke-linecap:round;stroke-linejoin:round;stroke-miterlimit:4;stroke-dasharray:none;stroke-opacity:1" />
        <g
           transform="translate(-3.5,-4.75)"
           id="g32995">
          <rect
             ry="14"
             rx="14"
             y="76.415504"
             x="27.630262"
             height="29.798687"
             width="52.388363"
             id="rect32997"
             style="opacity:1;fill:white;fill-opacity:1;stroke:black;stroke-width:1.3952179;stroke-linecap:round;stroke-linejoin:round;stroke-miterlimit:4;stroke-dasharray:none;stroke-opacity:1" />
          <text
             xml:space="preserve"
             style="font-size:14px;font-style:normal;font-variant:normal;font-weight:normal;font-stretch:normal;text-align:start;line-height:125%;writing-mode:lr-tb;text-anchor:start;fill:black;fill-opacity:1;stroke:none;stroke-width:1px;stroke-linecap:butt;stroke-linejoin:miter;stroke-opacity:1;font-family:Arial"
             x="39.257648"
             y="96.243561"
             id="text32999"
             sodipodi:linespacing="125%"><tspan
               sodipodi:role="line"
               id="tspan33001"
               x="39.257648"
               y="96.243561">Map</tspan></text>
        </g>
      </g>
      <g
         style="display:inline"
         transform="matrix(-2.706142,0,0,2.706142,786.959,311.6874)"
         id="g33003">
        <g
           id="g33005"
           transform="translate(79.72751,8.303197)">
          <path
             sodipodi:nodetypes="ccccc"
             id="path33007"
             d="M 119.611,174.09214 L 156.29216,174.09214 L 156.29216,211.30364 L 119.611,211.30364 L 119.611,174.09214 z "
             style="fill:#ff2424;fill-opacity:1;stroke:black;stroke-width:0.90477169;stroke-linecap:round;stroke-linejoin:round;stroke-miterlimit:4;stroke-dasharray:none;stroke-opacity:1" />
          <path
             style="fill:#00ed13;fill-opacity:1;stroke:black;stroke-width:0.90477169;stroke-linecap:round;stroke-linejoin:round;stroke-miterlimit:4;stroke-dasharray:none;stroke-opacity:1"
             d="M 119.611,136.88064 L 192.88493,136.88064 L 156.29216,174.09214 L 119.611,174.09214 L 119.611,136.88064 z "
             id="path33009"
             sodipodi:nodetypes="ccccc" />
          <path
             style="fill:#5456ff;fill-opacity:1;stroke:black;stroke-width:0.90477169;stroke-linecap:round;stroke-linejoin:round;stroke-miterlimit:4;stroke-dasharray:none;stroke-opacity:1"
             d="M 156.20377,174.09214 L 192.88493,136.88064 L 192.88493,211.30364 L 156.20377,211.30364 L 156.20377,174.09214 z "
             id="path33011"
             sodipodi:nodetypes="ccccc" />
        </g>
        <path
           id="path33013"
           style="fill:none;fill-opacity:0.75;fill-rule:evenodd;stroke:#003687;stroke-width:0.54286301;stroke-linecap:butt;stroke-linejoin:round;stroke-miterlimit:4;stroke-opacity:1"
           d="M 73.34004,221.48086 C 73.67593,221.42617 74.21974,221.13069 73.81771,220.65955 C 73.60511,220.41041 73.28816,220.36062 73.07437,220.06793 C 72.85584,219.76875 71.90567,218.61687 72.63171,218.27917 C 73.05678,218.08146 73.94092,217.45606 73.55879,216.90106 C 73.31103,216.5412 72.13194,215.77666 72.47302,215.19582 C 72.66947,214.86128 73.64341,213.99833 73.65066,213.62978 C 73.65922,213.19474 73.41742,211.88098 72.9825,211.57653 C 72.55868,211.27985 71.10342,210.6025 71.9719,209.84345 C 73.08359,208.87183 72.26962,208.72687 72.74864,207.825 C 73.12621,207.11413 72.81636,206.43468 72.92403,206.22416 C 73.3048,205.47969 73.20801,204.92267 73.20801,204.12219 C 73.20801,203.30507 72.72154,202.46567 71.82991,202.46567 C 70.68376,202.46567 70.48636,202.37476 70.70239,201.2546 C 70.95556,199.94181 69.72758,199.55419 69.84212,198.44965 C 69.91256,197.77039 69.73305,195.50326 69.7419,195.47766 C 69.87768,195.08461 69.96107,193.13358 69.97576,193.12512 C 70.33246,192.91974 74.42234,191.42845 73.32493,190.6473 C 72.13891,189.80307 73.95375,189.24449 73.79265,188.36436 C 73.57361,187.16775 72.6029,187.35439 73.44186,186.22063 C 75.19683,183.84901 73.24325,184.47101 73.34004,184.26936 C 73.54765,183.65805 76.06227,183.01894 76.50707,183.12336 C 77.81865,183.43124 77.66326,185.35775 79.42194,184.48755 C 80.91372,183.74942 81.91901,184.50653 83.48105,183.84721 C 84.78281,183.29776 84.11443,181.05687 85.50225,182.37862 C 87.31954,184.10941 87.79402,183.81857 90.12094,182.67791 C 90.66954,182.40898 95.35847,183.36 96.56038,183.36 C 98.3809,183.36 100.26005,184.26412 102.03934,184.66851 C 103.32865,184.96155 104.367,183.75635 105.62237,183.54097 C 107.22218,183.26649 108.46327,182.82041 109.89028,182.07237 C 111.08318,181.44705 112.27987,182.93458 113.11418,183.60361 C 114.06931,184.36953 114.58173,185.46443 115.36923,186.3668 C 116.31427,187.44967 117.21729,187.64747 118.6516,187.64747 C 119.98111,187.64747 119.7004,186.69752 120.38047,187.73099 C 120.38497,187.73782 122.11849,186.63182 122.98632,187.56394 C 124.32056,188.99704 126.51796,185.42411 127.05377,184.62675 C 127.73178,183.6178 128.71894,183.25743 129.70138,182.62222 C 130.061,182.38971 132.3743,184.76155 132.72483,185.14877 C 133.63225,186.15117 134.71871,185.06242 135.49771,184.32051 C 136.13442,183.71411 137.25041,184.70058 137.84464,184.87036 C 138.20591,184.97358 139.5441,185.21059 139.9076,185.14877 C 141.19067,184.93055 142.12959,183.63145 143.58251,183.63145 C 144.36448,183.63145 144.81075,184.08555 145.51184,184.31355 C 145.78368,184.40195 146.37091,184.29194 146.85704,184.22517 C 147.23467,185.06101 147.33407,186.13461 147.02356,187.04889 C 146.81476,187.66372 146.59821,188.13201 146.18001,188.67061 C 145.75976,189.21184 145.45344,190.47421 146.12989,190.96747 C 146.62711,191.33003 147.26577,192.05502 147.26577,192.69359 C 147.26577,193.49812 147.23699,194.21916 147.12379,194.99741 C 146.95933,196.12808 147.72525,196.65076 147.86712,197.69795 C 148.06262,199.1409 147.62019,199.65837 146.9484,200.80915 C 146.32218,201.88185 146.27567,202.84179 146.42222,204.08043 C 146.59165,205.51261 147.69316,206.75244 147.86712,208.25653 C 148.03619,209.71827 147.73559,210.81955 146.89828,212.04982 C 146.35508,212.84795 145.71662,213.60671 145.08589,214.31884 C 144.30421,215.20139 144.20057,215.23131 144.20057,216.79666 C 144.20057,218.36543 143.65553,219.85209 143.38206,221.39037 C 143.11509,222.89212 143.65981,224.78516 142.38817,225.84488 C 140.74357,227.2154 142.16266,227.52342 139.57352,227.22299 C 137.06271,226.93165 137.47103,230.37581 136.94262,232.05335 C 136.14935,234.57171 138.79376,235.21075 140.44214,236.58442 C 142.171,238.02516 143.76552,239.82526 142.9227,242.16647 C 141.57773,245.90257 142.17259,244.56843 144.26738,247.88077 C 145.57577,249.94962 146.41761,252.64069 147.33259,254.90358 C 147.47123,255.24646 148.00533,259.34302 146.61397,258.69236 C 146.57488,258.53541 145.8766,258.73878 145.73009,258.67026 C 144.91685,258.28996 145.16646,258.73435 144.44278,258.46023 C 144.32028,258.41383 144.19742,258.36837 144.07529,258.32102 C 143.82849,258.22537 142.26898,257.60002 142.13761,257.38836 C 141.76418,256.78672 139.63199,253.1985 139.63199,255.20287 C 139.63199,257.06522 139.59335,259.03096 137.57738,259.03096 C 136.82192,259.03096 133.73105,258.04465 133.14243,258.77344 C 131.93869,260.2638 131.62715,257.47041 130.63681,258.47415 C 129.44352,259.68358 129.49994,258.27509 128.36505,258.64119 C 127.73089,258.84576 127.53289,260.10254 126.87838,259.97755 C 126.24988,259.85752 124.53147,259.53425 124.13055,258.98224 C 123.43231,258.02088 121.38089,255.34886 121.1071,257.40228 C 120.51087,261.87409 119.12468,258.58005 118.44279,258.31406 C 117.56991,257.97357 116.0258,259.89797 115.26901,258.76648 C 114.39962,257.46663 114.3032,256.48047 112.48777,257.37444 C 111.58991,257.81658 108.66597,258.86831 109.93281,258.69236 C 109.49689,259.48496 107.95384,259.6017 107.16751,259.6017 C 104.69154,259.6017 106.86384,256.2575 103.70975,258.76648 C 103.5361,258.90461 103.3534,259.03096 103.17522,259.16321 C 102.04598,260.00133 103.65658,256.16125 101.51316,258.29318 C 99.96721,259.83084 100.44852,256.21366 98.10551,257.84077 C 95.63207,259.55847 96.05827,256.97701 94.53918,256.51834 C 92.75204,255.97874 89.95696,256.96948 88.30019,257.65981 C 87.4606,258.00964 88.82768,254.91468 87.17266,256.96379 C 85.6444,258.85595 85.89168,256.44829 85.09299,257.40228 C 83.9142,258.81031 82.52475,258.61374 80.91696,258.80824 C 79.91775,258.92911 78.43844,259.34513 78.04385,258.2375 C 77.86468,257.73457 76.11733,257.49251 75.73868,257.74333 C 74.87727,258.31393 75.10054,258.69618 74.09332,258.83608 C 73.87897,258.86585 74.11476,258.7774 73.05278,258.86914 C 73.02868,258.79994 73.10424,258.16612 73.1913,258.00782 C 73.51596,257.41752 73.6351,257.36578 73.61726,256.51834 C 73.60779,256.06851 73.68516,255.51242 73.6089,255.03582 C 73.54495,254.63611 73.5225,254.20699 73.96804,253.96396 C 74.64665,253.5938 76.29323,253.4812 76.69082,252.86425 C 77.34794,251.84456 76.7246,251.07609 75.9976,250.33771 C 75.07527,249.40096 75.03652,248.52611 75.66351,247.5954 C 76.36636,246.5521 74.84844,246.21017 75.57999,245.20111 C 76.82064,243.48983 75.56329,243.56816 75.56329,242.08991 C 75.56329,241.8695 75.56329,241.6491 75.56329,241.42869 C 75.56329,239.97757 79.46678,239.65447 78.86235,239.11792 C 77.1135,237.56546 78.47719,239.03383 77.73482,237.21779 C 77.14111,235.76541 78.39717,234.85408 77.93527,233.71683 C 77.63903,232.98743 77.12536,230.55302 76.53213,230.22978 C 75.41543,229.62131 75.31841,227.49354 74.44411,227.20211 C 72.32521,226.4958 73.17814,225.79101 73.5922,224.37628 C 73.59546,224.36514 72.62827,222.51117 72.8981,222.6962 C 73.07403,222.81684 73.4785,221.64313 73.34004,221.48086 M 73.34004,221.48086 C 73.38412,221.3685 74.87009,221.16024 75.12898,220.59691 C 75.572,219.63291 76.089,219.71859 77.0249,219.6016 C 77.51556,219.54027 77.37569,221.29427 77.37569,221.57829 C 77.37569,222.19656 77.7694,222.7019 78.2443,223.01209 C 79.20156,223.63733 79.45916,221.98545 80.12352,221.8567 C 80.964,221.69381 80.69106,223.45476 83.33906,221.66181 C 84.1477,221.11429 84.11285,220.05372 85.24333,219.71297 C 85.92354,219.50794 86.77084,220.66435 87.24783,221.01452 C 87.79707,221.41774 89.17872,221.50874 89.83697,221.59221 C 90.76606,221.71003 91.70508,221.2568 92.55139,220.99364 C 93.18522,220.79655 93.96692,220.08147 94.53918,219.71297 C 95.17432,219.30397 95.50961,218.15185 95.96738,217.6806 C 96.4076,217.22742 97.48002,218.00903 97.94682,218.16781 C 98.7157,218.42933 99.36195,219.11057 99.8845,219.69905 C 100.27752,220.14163 100.23902,220.97953 100.62784,221.45997 C 101.26015,222.24129 102.79703,221.44605 103.53436,221.44605 C 104.33165,221.44605 104.64999,220.70804 105.23818,221.39733 C 105.5883,221.80764 106.48798,221.61544 106.97541,221.55741 C 107.56587,221.48712 107.97053,221.14676 108.60406,221.14676 C 109.19407,221.14676 109.40416,221.22107 109.93281,221.48086 C 109.82119,221.60614 110.61555,221.1569 110.50394,221.28218 C 110.43393,221.36075 110.31304,220.98498 110.44152,220.2141 C 110.55129,219.55542 110.57871,218.96447 110.85912,218.36965 C 111.06607,217.93067 111.22661,217.5894 111.22661,217.07506 C 111.22661,216.32642 112.59651,217.48833 112.82185,217.6806 C 113.20579,218.00817 113.81002,217.4429 114.26676,217.22819 C 115.16528,216.8058 115.09207,214.46091 114.80965,213.7133 C 114.56971,213.07817 113.51009,212.26607 114.77624,212.1055 C 116.10044,211.93757 115.08129,210.53244 116.33807,210.88747 C 117.08356,211.09806 117.80735,212.42135 118.4595,212.93376 C 119.16147,213.48532 120.63885,213.92298 121.24074,213.16345 C 122.7291,211.28524 122.99661,211.78558 122.00913,209.05695 C 121.46945,207.5657 122.74778,207.21084 123.74636,207.63707 C 124.47432,207.94779 122.54712,205.69199 125.27478,207.1429 C 126.36271,207.72159 126.7684,207.12507 127.07048,206.16848 C 127.70228,204.16773 125.31867,204.30123 129.65962,203.6489 C 131.29629,203.40294 132.87462,204.92957 134.58734,204.92957 C 136.74992,204.92957 136.92855,204.71665 137.43539,202.43087 C 137.75029,201.01072 137.07184,199.26586 137.36858,198.67237 C 137.90265,197.60421 135.20648,197.1612 137.0512,196.61216 C 138.34182,196.22804 138.24974,197.63422 137.98663,194.92084 C 137.93593,194.39797 138.7841,193.53644 138.88865,192.79103 C 139.00845,191.9369 140.22304,191.91554 140.49225,192.67271 C 140.7522,193.40383 140.2751,191.13093 140.2751,190.35497 C 140.2751,189.32963 141.78124,188.46303 142.5218,187.93979 C 143.23079,187.43887 144.04188,188.87259 144.04188,187.61267 C 144.04188,186.98274 144.93853,186.6242 145.41162,186.34592 C 146.06785,185.95989 146.3844,186.26914 146.72289,185.40629 C 146.74329,185.35428 146.85704,184.3446 146.85704,184.22517 M 109.93281,221.48086 C 110.74219,221.48086 112.41592,222.87343 111.45212,223.58978 C 110.639,224.19414 109.90159,224.6576 109.72324,225.74047 C 109.62052,226.36412 111.21138,227.31444 111.55234,228.07213 C 111.99978,229.06645 113.09861,229.07146 113.53178,230.01402 C 113.82311,230.64794 114.30354,231.57537 113.87421,232.17167 C 113.33386,232.92217 113.14758,233.02214 113.14758,233.98827 C 113.14758,234.09461 114.89731,234.6961 115.07691,235.38031 C 115.28852,236.18645 115.66222,236.2133 114.65931,236.80714 C 114.62338,236.82842 114.57579,236.80714 114.53403,236.80714 C 113.843,236.80714 113.62158,237.84295 113.85751,238.26182 C 114.2923,239.03375 113.01684,239.33416 112.66316,239.70257 C 112.61051,239.75742 113.74966,241.09199 113.79905,241.45653 C 113.95525,242.6095 112.98053,242.80628 112.15369,242.89729 C 111.1976,243.00252 111.31573,243.90391 110.81736,244.51205 C 110.23555,245.22201 108.99049,245.61177 108.1614,245.97368 C 106.70275,246.61041 107.45949,247.91418 107.68533,248.85519 C 107.89822,249.74224 107.85469,249.60081 108.43702,250.13587 C 108.872,250.53554 109.26277,251.01887 109.12189,251.5975 C 108.81104,252.87424 110.02255,252.28047 110.53339,253.14962 C 111.1518,254.2018 110.70394,254.55164 110.04897,255.20983 C 109.80726,255.45273 110.1826,256.2927 110.1826,256.63666 C 110.1826,256.92364 109.81139,257.35783 109.68983,257.61109 C 109.59966,257.79894 110.00217,258.63821 110.0212,258.69236"
           sodipodi:nodetypes="cssssssssssssssssssscsssssssssssssssssssssscsssssssssssssssssssscssssssssssssssscssssssssssssscsssssssssssssssssccssssssssssssssssssscssssssssssssssssssssssssssssccssssssssssssssssssssssc" />
        <path
           style="fill:none;fill-opacity:0.75;fill-rule:evenodd;stroke:black;stroke-width:0.90477169px;stroke-linecap:butt;stroke-linejoin:miter;marker-mid:none;marker-end:url(#Arrow1Mend);stroke-opacity:1"
           d="M 226.20816,142.2674 C 206.04399,119.98068 111.30249,116.83277 105.64563,179.05817"
           id="path33015"
           sodipodi:nodetypes="cs" />
        <path
           style="fill:none;fill-opacity:0.75;fill-rule:evenodd;stroke:black;stroke-width:0.90477169px;stroke-linecap:butt;stroke-linejoin:miter;marker-end:url(#Arrow1Mend);stroke-opacity:1"
           d="M 218.42876,223.58468 C 206.75476,264.9743 105.99919,311.64069 92.2106,261.43611"
           id="path33017"
           sodipodi:nodetypes="cs" />
        <path
           style="fill:none;fill-opacity:0.75;fill-rule:evenodd;stroke:black;stroke-width:0.90477169px;stroke-linecap:butt;stroke-linejoin:miter;marker-mid:none;marker-end:url(#Arrow1Mend);stroke-opacity:1"
           d="M 245.65462,167.72201 C 205.69288,145.08929 144.18295,256.1328 131.45503,207.34244"
           id="path33019"
           sodipodi:nodetypes="cs" />
      </g>
    </g>
  </g>
</svg>
