<?xml version="1.0" encoding="UTF-8" standalone="no"?>
<!-- Created with Inkscape (http://www.inkscape.org/) -->
<svg
   xmlns:dc="http://purl.org/dc/elements/1.1/"
   xmlns:cc="http://web.resource.org/cc/"
   xmlns:rdf="http://www.w3.org/1999/02/22-rdf-syntax-ns#"
   xmlns:svg="http://www.w3.org/2000/svg"
   xmlns="http://www.w3.org/2000/svg"
   xmlns:sodipodi="http://sodipodi.sourceforge.net/DTD/sodipodi-0.dtd"
   xmlns:inkscape="http://www.inkscape.org/namespaces/inkscape"
   width="292.5"
   height="112.5"
   id="svg2484"
   sodipodi:version="0.32"
   inkscape:version="0.43+devel"
   version="1.0"
   sodipodi:docbase="C:\Development\projects\terrainosaurus\doc\Master's Thesis\src\resources"
   sodipodi:docname="Overview - Boundary Refinement.svg">
  <defs
     id="defs2486">
    <marker
       inkscape:stockid="Arrow1Mend"
       orient="auto"
       refY="0"
       refX="0"
       id="Arrow1Mend"
       style="overflow:visible">
      <path
         id="path6871"
         d="M 0,0 L 5,-5 L -12.5,0 L 5,5 L 0,0 z "
         style="fill-rule:evenodd;stroke:black;stroke-width:1pt;marker-start:none"
         transform="matrix(-0.4,0,0,-0.4,-4,0)" />
    </marker>
    <marker
       inkscape:stockid="Arrow2Lend"
       orient="auto"
       refY="0"
       refX="0"
       id="Arrow2Lend"
       style="overflow:visible">
      <path
         id="path6859"
         style="font-size:12px;fill-rule:evenodd;stroke-width:0.625;stroke-linejoin:round"
         d="M 8.7185878,4.0337352 L -2.2072895,0.016013256 L 8.7185884,-4.0017078 C 6.97309,-1.6296469 6.9831476,1.6157441 8.7185878,4.0337352 z "
         transform="matrix(-1.1,0,0,-1.1,-1.1,0)" />
    </marker>
    <marker
       inkscape:stockid="Arrow1Lend"
       orient="auto"
       refY="0"
       refX="0"
       id="Arrow1Lend"
       style="overflow:visible">
      <path
         id="path6877"
         d="M 0,0 L 5,-5 L -12.5,0 L 5,5 L 0,0 z "
         style="fill-rule:evenodd;stroke:black;stroke-width:1pt;marker-start:none"
         transform="matrix(-0.8,0,0,-0.8,-10,0)" />
    </marker>
  </defs>
  <sodipodi:namedview
     id="base"
     pagecolor="#ffffff"
     bordercolor="#666666"
     borderopacity="1.0"
     gridtolerance="10000"
     guidetolerance="10"
     objecttolerance="10"
     inkscape:pageopacity="0.0"
     inkscape:pageshadow="2"
     inkscape:zoom="3.3892998"
     inkscape:cx="161.64244"
     inkscape:cy="74.413253"
     inkscape:document-units="px"
     inkscape:current-layer="layer1"
     inkscape:object-nodes="true"
     inkscape:object-points="false"
     width="3.25in"
     height="1.25in"
     units="in"
     inkscape:window-width="1920"
     inkscape:window-height="1134"
     inkscape:window-x="-4"
     inkscape:window-y="-4" />
  <metadata
     id="metadata2489">
    <rdf:RDF>
      <cc:Work
         rdf:about="">
        <dc:format>image/svg+xml</dc:format>
        <dc:type
           rdf:resource="http://purl.org/dc/dcmitype/StillImage" />
      </cc:Work>
    </rdf:RDF>
  </metadata>
  <g
     inkscape:label="Layer 1"
     inkscape:groupmode="layer"
     id="layer1">
    <g
       transform="translate(-158.3645,-138.8761)"
       id="g34662">
      <path
         style="fill:#bda484;fill-opacity:1;fill-rule:evenodd;stroke:black;stroke-width:0.99212599;stroke-linecap:butt;stroke-linejoin:round;stroke-miterlimit:4;stroke-dasharray:none;stroke-opacity:1"
         d="M 201.50465,163.07103 L 163.34089,184.44274 L 188.52897,201.99806 L 197.68828,185.20601 L 235.08876,182.15291 L 201.50465,163.07103 z "
         id="path13834" />
      <path
         style="fill:#efb359;fill-opacity:1;fill-rule:evenodd;stroke:black;stroke-width:0.99212599;stroke-linecap:butt;stroke-linejoin:round;stroke-miterlimit:4;stroke-dasharray:none;stroke-opacity:1"
         id="path13836"
         sodipodi:nodetypes="ccccccc"
         d="M 235.08876,182.15291 L 263.74771,169.72124 L 274.77741,207.63584 L 207.35837,234.52073 L 188.52897,201.99806 L 226.79821,202.39673 L 235.08876,182.15291 z " />
      <path
         style="fill:#64f355;fill-opacity:1;fill-rule:evenodd;stroke:black;stroke-width:0.99212599;stroke-linecap:butt;stroke-linejoin:round;stroke-miterlimit:4;stroke-dasharray:none;stroke-opacity:1"
         d="M 197.68828,185.20601 L 197.68828,185.20601 L 188.52897,201.99806 L 226.79821,202.39673 L 235.08876,182.15291 L 197.68828,185.20601 z "
         id="path13838" />
      <path
         style="opacity:1;fill:#afa9ed;fill-opacity:1;fill-rule:evenodd;stroke:black;stroke-width:1px;stroke-linecap:butt;stroke-linejoin:round;stroke-opacity:1"
         id="path16533"
         sodipodi:nodetypes="ccccc"
         d="M 263.74771,169.72124 L 235.43239,152.65967 L 201.50465,163.07103 L 235.08876,182.15291 L 263.74771,169.72124 z " />
    </g>
    <g
       id="g5755"
       transform="translate(7.362126,-142.4796)">
      <path
         id="path5769"
         style="fill:#afa9ed;fill-opacity:1;fill-rule:evenodd;stroke:black;stroke-width:1px;stroke-linecap:butt;stroke-linejoin:miter;stroke-opacity:1"
         d="M 201.97835,163.20906 C 201.46229,163.61383 203.13766,163.89581 203.40273,163.82754 C 204.12484,163.64154 204.53515,163.2198 205.29269,163.5087 C 205.86058,163.72527 205.65715,164.40646 205.75826,164.88393 C 205.89219,165.51637 206.35888,165.98663 206.57878,166.57032 C 206.77417,167.08895 206.82997,167.69752 207.56524,166.98904 C 207.9946,166.57533 208.38542,165.8827 209.0265,165.8827 C 209.37244,165.8827 209.35379,167.48848 209.35379,167.73812 C 209.35379,168.04243 209.38669,168.28694 209.4552,168.56018 C 209.67004,169.41699 211.11119,169.26443 211.70471,169.18634 C 212.80617,169.04141 213.87606,168.47098 214.93146,168.12994 C 215.58337,167.91929 216.58974,167.83258 217.15792,168.27976 C 217.39234,168.46426 217.16567,169.21318 217.36536,169.50902 C 217.54189,169.77055 217.9163,169.93775 218.19048,169.98536 C 219.04993,170.13457 220.13566,169.45927 220.90095,169.17097 C 221.31956,169.01327 221.86369,169.02371 221.92891,169.51286 C 221.97837,169.88384 221.79541,170.21065 221.9243,170.59999 C 222.15914,171.30943 222.54711,171.59507 223.26109,171.8062 C 224.0434,172.03753 224.84487,171.5985 225.56592,171.3337 C 226.05829,171.15288 226.62806,171.63619 226.84279,172.03668 C 226.99109,172.31328 226.43182,173.02969 226.39105,173.33125 C 226.33559,173.74138 226.90056,174.14329 227.19773,174.36459 C 227.95253,174.92669 228.99312,174.4952 229.82523,174.4952 C 230.54583,174.4952 230.90246,174.65658 231.31876,175.20587 C 231.61435,175.59589 231.67042,176.22974 231.72441,176.6925 C 231.78967,177.25193 231.74067,177.85967 231.87653,178.40578 C 232.09564,179.28657 232.57117,178.65228 233.15801,178.73231 C 233.85558,178.82743 234.62366,178.98575 235.00187,179.62736 C 235.2298,180.01404 235.29688,180.31326 235.29688,180.7529 C 235.29688,181.05423 235.15453,181.33191 235.04796,181.58265 C 234.99548,181.70615 234.96056,181.81416 235.01535,182.04449 C 245.25381,181.88064 241.76187,181.88476 245.56118,181.88476 C 246.89164,181.88476 248.12877,181.7941 249.44711,181.60818 C 251.08807,181.37675 252.67778,181.49901 254.2181,180.71312 C 255.52631,180.04566 255.03861,179.32194 255.03861,178.08942 C 255.03861,174.0607 264.21219,171.04833 263.68313,169.6958 C 263.59252,169.62413 263.43815,169.51907 263.3973,169.45524 C 263.22744,169.18984 263.237,169.26615 263.28205,168.94433 C 263.32762,168.61882 263.44769,168.56041 263.60012,168.25287 C 263.70926,168.03268 264.21762,167.26441 263.81216,167.04666 C 263.02243,166.62253 260.95867,167.79165 260.47478,167.25794 C 260.25792,167.01875 260.73645,166.1589 260.31344,166.00563 C 259.69922,165.78308 258.64282,165.69447 257.95791,165.69447 C 257.59572,165.69447 255.84047,165.85442 255.63004,165.78667 C 255.10153,165.6165 255.31924,165.35728 255.66231,165.09521 C 255.80544,164.98587 257.17417,163.81396 256.87925,163.56248 C 256.09832,162.89655 255.15451,163.29891 254.30246,163.47412 C 253.86993,163.56306 252.43264,163.75994 252.33875,163.0362 C 252.29855,162.72634 252.52042,162.1337 252.33414,161.87224 C 252.27575,161.79029 252.21736,161.70834 252.15897,161.62639 C 251.89571,161.2569 252.18762,160.89838 252.1221,160.78512 C 251.94266,160.47497 251.53505,160.42189 251.22322,160.62762 C 250.75486,160.93661 249.98869,161.93131 249.28716,161.64944 C 248.89494,161.49185 248.73413,160.74371 248.84003,160.30878 C 248.97201,159.76672 249.13687,159.18005 248.58189,158.80294 C 247.8364,158.29638 248.30864,158.22251 247.69684,158.46489 C 247.60311,158.50202 247.51013,158.54111 247.41565,158.57629 C 247.09331,158.69631 244.69324,159.31101 244.64064,159.19476 C 244.19055,158.19998 244.72812,158.2517 244.65908,157.69276 C 244.60004,157.21481 244.3677,156.54491 244.00451,156.75929 C 243.17627,157.24819 243.35509,156.98988 242.42801,157.83489 C 241.83618,158.37433 241.56169,157.46914 241.64437,156.97825 C 241.76716,156.24916 242.29894,155.86799 242.29894,155.01528 C 242.29894,154.49965 242.11309,154.03659 241.53374,154.38144 C 241.14944,154.6102 240.13628,155.41678 239.76824,155.50698 C 238.62405,155.78743 239.57707,154.75393 239.06297,154.38529 C 238.59862,152.78841 238.37025,153.5104 237.44037,154.51589 C 236.79554,154.72201 236.45138,154.24586 236.91026,153.64773 C 237.05461,153.45957 237.79723,152.39376 237.38044,152.19183 C 236.77441,151.8982 236.16221,152.61975 235.53659,152.66432 C 235.56419,152.70745 234.77462,152.1708 234.10299,151.77311 C 233.69205,151.52979 233.36977,151.47749 232.98284,151.71933 C 232.63254,151.93827 232.76619,152.94016 232.76619,153.30584 C 232.76619,153.90597 232.59268,154.44871 232.10701,154.82705 C 231.31569,155.44349 230.53897,155.5463 229.59475,155.39174 C 229.36708,154.79624 228.87504,153.99091 228.24412,153.49407 C 228.4048,153.35645 227.32132,153.67313 226.86584,154.32382 C 226.52735,154.80739 226.65233,155.54383 226.81052,156.04479 C 226.92905,156.42014 226.32531,156.9794 226.02688,157.05508 C 225.19443,157.26622 224.23838,156.2987 223.5515,156.0179 C 222.97088,155.78053 222.05513,155.64799 221.58779,155.50698 C 221.33413,155.43045 221.23417,157.52914 221.19136,157.72733 C 221.10745,158.11584 220.34892,158.40409 220.08505,158.69922 C 219.63498,159.20259 218.74427,158.25237 218.44401,158.0116 C 217.98763,157.64563 217.62365,157.00116 217.04729,157.5391 C 216.83181,157.74022 215.96632,156.54131 215.5215,156.27911 C 214.79344,155.84997 214.04884,155.66055 213.35496,156.17155 C 212.66894,156.67677 213.01499,157.54436 212.75571,158.21136 C 212.447,159.00552 211.96921,158.59638 211.45579,158.2152 C 210.94318,157.83462 210.59462,157.41159 209.94843,157.32783 C 209.49966,157.26965 208.96712,157.50184 208.76375,157.81569 C 208.54994,158.14565 208.95941,158.78854 209.01728,159.11409 C 209.08633,159.50248 208.50853,159.66645 208.22903,159.74409 C 207.43621,159.96432 207.07455,159.57433 206.4451,160.06677 C 205.98444,160.42715 206.02947,160.53245 205.94726,161.10012 C 205.85467,161.73944 205.24619,161.49294 204.79024,161.38438 C 204.2577,161.25759 204.07273,161.03264 203.55024,161.32292 C 203.45292,161.37699 203.35971,161.43816 203.26444,161.49578 C 203.1292,161.57759 202.9304,162.12216 202.80809,162.28328 C 202.59899,162.5587 202.38542,162.88527 202.14891,163.07077 C 202.0907,163.11643 202.06286,162.95041 202.01984,162.89022"
         sodipodi:nodetypes="cssssssssssssssssssssssssssssscsssscssssssssssssssssssssssssssssssssscssssssssssssssssssssssssssssssc" />
      <path
         id="path5779"
         style="fill:#bda484;fill-opacity:1;fill-rule:evenodd;stroke:black;stroke-width:1px;stroke-linecap:butt;stroke-linejoin:miter;stroke-opacity:1"
         d="M 202.78591,183.14638 C 203.54088,182.91387 203.80168,183.47815 204.51997,183.7331 C 205.92352,184.23129 203.87518,184.72184 204.96978,184.72184 C 205.82937,184.72184 206.87885,185.1859 207.79252,185.25423 C 208.47652,185.30539 209.454,184.80998 209.98291,184.44477 C 210.67007,183.9703 211.18182,183.55196 211.95817,183.2333 C 212.63718,182.9546 213.33914,182.71229 214.03123,182.48903 C 214.47303,182.34651 215.40623,183.19595 215.79788,183.40171 C 216.63527,183.84165 216.76475,184.12381 217.77315,183.90695 C 218.68547,183.71074 219.69341,183.20047 220.54373,182.86388 C 221.40907,182.52135 222.47603,182.40148 223.38603,182.18481 C 224.55494,181.90649 225.57356,181.63611 226.77592,181.63611 C 227.38244,181.63611 228.22529,181.96302 228.80986,182.22284 C 229.50231,182.5306 230.17657,182.40022 230.78512,182.86388 C 231.03568,183.05479 231.77516,182.62454 231.98462,182.50533 C 232.41428,182.26081 233.63369,182.10636 234.1359,182.05986 C 234.4429,182.03143 234.67497,182.05676 234.90072,182.0387 C 234.96056,181.81416 234.99548,181.70615 235.04796,181.58265 C 235.15453,181.33191 235.29688,181.05423 235.29688,180.7529 C 235.29688,180.31326 235.2298,180.01404 235.00187,179.62736 C 234.62366,178.98575 233.85558,178.82743 233.15801,178.73231 C 232.57117,178.65228 232.09564,179.28657 231.87653,178.40578 C 231.74067,177.85967 231.78967,177.25193 231.72441,176.6925 C 231.67042,176.22974 231.61435,175.59589 231.31876,175.20587 C 230.90246,174.65658 230.54583,174.4952 229.82523,174.4952 C 228.99312,174.4952 227.95253,174.92669 227.19773,174.36459 C 226.90056,174.14329 226.33559,173.74138 226.39105,173.33125 C 226.43182,173.02969 226.99109,172.31328 226.84279,172.03668 C 226.62806,171.63619 226.05829,171.15288 225.56592,171.3337 C 224.84487,171.5985 224.0434,172.03753 223.26109,171.8062 C 222.54711,171.59507 222.15914,171.30943 221.9243,170.59999 C 221.79541,170.21065 221.97837,169.88384 221.92891,169.51286 C 221.86369,169.02371 221.31956,169.01327 220.90095,169.17097 C 220.13566,169.45927 219.04993,170.13457 218.19048,169.98536 C 217.9163,169.93775 217.54189,169.77055 217.36536,169.50902 C 217.16567,169.21318 217.39234,168.46426 217.15792,168.27976 C 216.58974,167.83258 215.58337,167.91929 214.93146,168.12994 C 213.87606,168.47098 212.80617,169.04141 211.70471,169.18634 C 211.11119,169.26443 209.67004,169.41699 209.4552,168.56018 C 209.38669,168.28694 209.35379,168.04243 209.35379,167.73812 C 209.35379,167.48848 209.37244,165.8827 209.0265,165.8827 C 208.38542,165.8827 207.9946,166.57533 207.56524,166.98904 C 206.82997,167.69752 206.77417,167.08895 206.57878,166.57032 C 206.35888,165.98663 205.89219,165.51637 205.75826,164.88393 C 205.65715,164.40646 205.86058,163.72527 205.29269,163.5087 C 204.53515,163.2198 204.12484,163.64154 203.40273,163.82754 C 203.13766,163.89581 201.46229,163.61383 201.8047,163.26411 C 201.51806,163.35719 201.40507,163.39522 201.29207,163.43325 C 200.79101,163.60188 199.99115,163.56363 199.46674,163.56363 C 198.84351,163.56363 198.31816,163.62933 197.72616,163.7755 C 197.2089,163.90322 196.7329,163.96189 196.22679,164.14492 C 195.70103,164.33505 195.2158,164.43913 194.70133,164.67731 C 194.28893,164.86824 193.85531,165.0521 193.46272,165.24231 C 193.04981,165.44236 192.6641,165.72085 192.2567,165.93225 C 191.79116,166.17381 191.40593,166.63354 191.06372,167.02963 C 190.69339,167.45826 190.36846,167.9356 190.05979,168.42038 C 189.78694,168.8489 189.45249,169.23961 189.13409,169.65902 C 188.90445,169.9615 188.69101,170.22584 188.43655,170.50651 C 188.06678,170.91435 187.51508,171.21941 187.08711,171.56586 C 186.56627,171.98751 185.36115,172.03059 184.74026,172.17432 C 183.89589,172.36978 183.09506,172.47658 182.26303,172.7719 C 181.62976,172.99668 181.02599,173.16154 180.40511,173.40752 C 179.94419,173.59013 179.56186,173.88948 179.17953,174.20068 C 178.85492,174.4649 178.42891,174.66478 178.0713,174.86346 C 177.69837,175.07064 177.55774,175.5662 177.35421,175.91195 C 177.16214,176.23822 176.99312,176.60519 176.78705,176.95501 C 176.55535,177.34834 176.25412,177.61584 175.88743,177.89486 C 175.37212,178.28694 174.4221,178.22159 173.80134,178.40552 C 173.31659,178.54915 172.89675,178.73984 172.46494,178.97051 C 172.05845,179.18766 171.9068,179.3593 171.59791,179.67132 C 171.3465,179.92527 171.1266,180.2151 170.93297,180.50794 C 170.80075,180.70791 170.6922,180.92776 170.58746,181.13269 C 170.445,181.41143 169.92127,181.51513 169.61612,181.5999 C 169.30152,181.68729 169.22972,181.77812 168.9577,181.93129 C 168.81849,182.00967 163.86615,184.28549 163.64849,184.46096 C 163.05933,184.93592 165.46941,185.83481 167.16595,185.43894 C 168.2376,185.18888 168.76066,186.18305 169.21292,186.99267 C 169.66096,187.79472 169.74341,188.74864 170.18426,189.55686 C 170.67801,190.46209 171.00598,191.08956 172.09433,190.87699 C 173.07385,190.68567 174.57873,190.37834 175.49074,190.82266 C 176.61166,191.36876 177.22395,192.46366 177.79848,193.5118 C 178.29072,194.40982 178.78703,195.31925 179.35001,196.17378 C 179.96858,197.1127 180.93245,196.49676 181.85983,196.24441 C 183.07789,195.91296 184.19357,196.22685 184.96289,197.21141 C 185.38582,197.75267 185.52542,198.47205 185.99941,199.06936 C 186.45595,199.64468 186.91247,200.27514 187.42056,200.7915 C 187.7551,201.13148 188.17382,201.54288 188.59399,201.70961 C 188.61839,201.7193 188.64179,201.73134 188.74392,201.93507 C 189.19057,202.27413 189.52621,200.35058 189.52621,199.95488 C 189.52621,199.26643 188.6459,198.47153 188.54835,197.71664 C 188.44406,196.90961 189.16621,195.99649 189.62399,195.36976 C 190.13871,194.66507 189.82405,193.77621 190.97995,193.91382 C 191.71713,194.00158 192.25243,193.85792 192.89002,193.49007 C 193.48419,193.14728 194.03023,192.94516 194.1156,192.21341 C 194.15644,191.86331 193.63092,190.43324 193.52889,190.02407 C 193.36062,189.34924 193.46733,189.14646 193.85484,188.54096 C 194.16466,188.05686 193.41989,187.32471 193.28768,186.88402 C 193.18268,186.534 194.21668,185.88189 194.38288,185.75403 C 194.68925,185.51836 195.33197,185.28622 195.73884,185.22164 C 196.23415,185.14302 196.57615,185.51314 197.25125,185.30856 C 197.79073,185.14508 197.69058,184.86272 198.23562,185.33029 C 198.24525,185.33854 198.23562,185.35564 198.23562,185.36832"
         sodipodi:nodetypes="cssssssssssssssscssssssssssssssssssssssssssssscsssssssssssssssssssssssssssssssssssssssscsssssssssssssc" />
      <path
         id="path5771"
         style="fill:#64f355;fill-opacity:1;fill-rule:evenodd;stroke:black;stroke-width:1px;stroke-linecap:butt;stroke-linejoin:miter;stroke-opacity:1"
         d="M 235.08041,182.14427 C 235.15752,182.1168 234.4429,182.03143 234.1359,182.05986 C 233.63369,182.10636 232.41428,182.26081 231.98462,182.50533 C 231.77516,182.62454 231.03568,183.05479 230.78512,182.86388 C 230.17657,182.40022 229.50231,182.5306 228.80986,182.22284 C 228.22529,181.96302 227.38244,181.63611 226.77592,181.63611 C 225.57356,181.63611 224.55494,181.90649 223.38603,182.18481 C 222.47603,182.40148 221.40907,182.52135 220.54373,182.86388 C 219.69341,183.20047 218.68547,183.71074 217.77315,183.90695 C 216.76475,184.12381 216.63527,183.84165 215.79788,183.40171 C 215.40623,183.19595 214.47303,182.34651 214.03123,182.48903 C 213.33914,182.71229 212.63718,182.9546 211.95817,183.2333 C 211.18182,183.55196 210.67007,183.9703 209.98291,184.44477 C 209.454,184.80998 208.47652,185.30539 207.79252,185.25423 C 206.87885,185.1859 205.82937,184.72184 204.96978,184.72184 C 203.87518,184.72184 205.92352,184.23129 204.51997,183.7331 C 203.80168,183.47815 203.54088,182.91387 202.78591,183.14638 C 201.9013,183.41882 201.06136,183.80636 200.16526,184.06992 C 199.4741,184.40536 198.85693,184.87841 198.23562,185.33029 C 197.69058,184.86272 197.79073,185.14508 197.25125,185.30856 C 196.57615,185.51314 196.23415,185.14302 195.73884,185.22164 C 195.33197,185.28622 194.68925,185.51836 194.38288,185.75403 C 194.21668,185.88189 193.18268,186.534 193.28768,186.88402 C 193.41989,187.32471 194.16466,188.05686 193.85484,188.54096 C 193.46733,189.14646 193.36062,189.34924 193.52889,190.02407 C 193.63092,190.43324 194.15644,191.86331 194.1156,192.21341 C 194.03023,192.94516 193.48419,193.14728 192.89002,193.49007 C 192.25243,193.85792 191.71713,194.00158 190.97995,193.91382 C 189.82405,193.77621 190.13871,194.66507 189.62399,195.36976 C 189.16621,195.99649 188.44406,196.90961 188.54835,197.71664 C 188.6459,198.47153 189.52621,199.26643 189.52621,199.95488 C 189.52621,200.35058 188.39805,202.36219 188.67556,202.06299 C 189.90707,200.73525 196.58703,198.99416 199.44315,201.26096 C 200.25872,201.90825 200.8806,202.67943 201.76642,203.24314 C 202.44289,203.67363 202.47217,204.177 203.0479,203.39296 C 203.65841,202.56156 203.21845,201.80226 203.21845,200.94981 C 203.21845,200.24774 203.67911,200.71402 204.15882,200.98054 C 204.64421,201.2502 205.43613,201.32748 205.68923,200.78847 C 206.00167,200.12306 206.36814,199.34873 207.03524,198.98299 C 207.52488,198.71455 207.92191,199.34433 208.07702,199.70134 C 208.32544,200.2731 208.87956,200.83957 209.23865,201.36084 C 209.67553,201.99503 209.60837,202.76703 210.10066,203.31997 C 211.05401,204.39078 212.09116,204.03071 212.77425,203.05107 C 213.38027,202.18196 214.76014,201.76984 215.67833,201.31858 C 216.01877,201.15127 216.40711,201.17496 216.76621,201.21486 C 220.11274,201.58671 224.49786,203.80209 226.79821,202.39673 C 229.24312,200.90305 230.35042,197.30145 231.93003,194.0305 C 233.55375,190.6682 231.96196,182.2379 235.57613,182.13979 C 235.90629,182.13082 236.89676,182.10351 236.56661,182.11264 C 236.14485,182.12431 234.92014,182.20139 235.08041,182.14427 z "
         sodipodi:nodetypes="csssssssssssssssssssssssssssssssssssssssssssssssss" />
      <path
         id="path5765"
         style="fill:#efb359;fill-opacity:1;fill-rule:evenodd;stroke:black;stroke-width:1px;stroke-linecap:butt;stroke-linejoin:miter;stroke-opacity:1"
         d="M 235.19503,182.15006 C 245.36008,181.87779 241.76187,181.88476 245.56118,181.88476 C 246.89164,181.88476 248.12877,181.7941 249.44711,181.60818 C 251.08807,181.37675 252.67778,181.49901 254.2181,180.71312 C 255.52631,180.04566 255.03861,179.32194 255.03861,178.08942 C 255.03861,174.0607 263.10103,170.74118 263.74771,169.72124 C 265.40551,167.10658 268.04362,176.1136 271.43974,177.32113 C 271.95643,177.50485 272.93433,178.29701 273.2375,178.76935 C 273.63996,179.39638 273.47259,180.54711 273.47259,181.27013 C 273.47259,182.03657 272.95496,182.81065 272.78115,183.55194 C 272.60087,184.3208 272.32302,184.75708 271.49045,184.99248 C 270.89882,185.15976 273.1391,186.20977 273.45416,186.35619 C 274.85041,187.0051 274.86695,187.1239 273.87824,188.48435 C 273.26438,189.32902 272.42797,189.7706 273.27899,190.68933 C 273.92519,191.38694 274.43056,192.22497 275.06753,192.93273 C 275.8182,193.76682 276.47109,194.51901 276.84225,195.57948 C 278.06877,199.08389 275.35947,207.41948 274.77741,207.63584 C 271.83007,208.73143 267.28732,207.38377 264.64512,209.58564 C 263.50432,210.53632 262.30385,211.21057 260.79606,211.21057 C 259.63667,211.21057 258.68941,210.62324 257.52782,210.78801 C 256.11895,210.98785 256.55817,211.72508 256.25095,212.93537 C 255.99878,213.9288 253.70468,215.06322 252.89513,215.62053 C 251.47122,216.60078 250.65838,216.72426 249.12444,215.97395 C 247.0183,214.94376 247.75087,215.18162 246.03597,217.13406 C 244.93452,218.38808 242.99996,220.51674 241.14514,219.6502 C 238.96602,218.63216 237.86911,220.85032 236.46634,220.32629 C 235.01561,219.78434 234.79172,218.85329 233.02294,218.51314 C 232.59181,218.43023 231.07854,217.98431 231.11454,218.37869 C 231.2278,219.61909 231.19242,221.05953 230.95321,222.27774 C 230.64451,223.84984 229.57014,226.25747 227.64809,226.25747 C 226.97373,226.25747 225.07168,225.4027 224.61955,225.91942 C 223.46823,227.23524 224.89291,227.49432 223.24588,226.8721 C 222.22375,226.48596 221.49067,227.07186 220.4847,227.07186 C 219.33561,227.07186 219.90852,227.86233 219.56738,228.8005 C 219.34973,229.39904 219.18483,231.31276 218.9589,231.47414 C 218.32882,231.92421 217.85414,231.28408 217.28099,230.94018 C 214.26581,229.13104 209.18786,235.59968 207.35837,234.52073 C 205.90221,233.66196 209.4516,226.40809 206.81859,224.31362 C 205.56921,223.31977 204.71298,223.83915 203.39362,224.49417 C 202.46788,224.95376 201.47503,225.24897 201.30545,223.90643 C 201.24974,223.4654 200.43903,220.48693 199.53996,221.04071 C 199.46927,221.08425 199.39831,221.12733 199.32791,221.17132 C 198.78315,221.51181 196.3075,221.76907 196.51142,220.622 C 196.72001,219.44865 197.50582,218.38992 197.16138,217.13013 C 196.88853,216.13222 195.66796,215.18637 194.56615,215.18637 C 192.92837,215.18637 191.11026,215.83932 190.89687,213.60369 C 190.41258,210.37363 190.47013,210.90058 192.37412,207.09099 C 193.46676,204.90478 187.67631,205.93171 188.52897,201.99806 C 190.69959,200.64719 196.58703,198.99416 199.44315,201.26096 C 200.25872,201.90825 200.8806,202.67943 201.76642,203.24314 C 202.44289,203.67363 202.47217,204.177 203.0479,203.39296 C 203.65841,202.56156 203.21845,201.80226 203.21845,200.94981 C 203.21845,200.24774 203.67911,200.71402 204.15882,200.98054 C 204.64421,201.2502 205.43613,201.32748 205.68923,200.78847 C 206.00167,200.12306 206.36814,199.34873 207.03524,198.98299 C 207.52488,198.71455 207.92191,199.34433 208.07702,199.70134 C 208.32544,200.2731 208.87956,200.83957 209.23865,201.36084 C 209.67553,201.99503 209.60837,202.76703 210.10066,203.31997 C 211.05401,204.39078 212.09116,204.03071 212.77425,203.05107 C 213.38027,202.18196 214.76014,201.76984 215.67833,201.31858 C 216.01877,201.15127 216.40711,201.17496 216.76621,201.21486 C 220.11274,201.58671 224.49786,203.80209 226.79821,202.39673 C 229.24312,200.90305 230.35042,197.30145 231.93003,194.0305 C 233.55375,190.6682 231.96196,182.2379 235.57613,182.13979 C 235.90629,182.13082 236.89676,182.10351 236.56661,182.11264 C 236.14485,182.12431 234.77311,182.15006 235.19503,182.15006 z "
         sodipodi:nodetypes="csssssssssssssssssssssssssssssssssssssssssssscscsssssssssssssssssc" />
    </g>
    <path
       style="fill:none;fill-opacity:0.75;fill-rule:evenodd;stroke:black;stroke-width:1px;stroke-linecap:butt;stroke-linejoin:miter;marker-end:url(#Arrow1Mend);stroke-opacity:1"
       d="M 111.91266,25.068318 C 133.14547,9.5200307 160.66299,11.392278 180.18054,26.199491"
       id="path5820"
       sodipodi:nodetypes="cc" />
  </g>
</svg>
