<?xml version="1.0" encoding="UTF-8" standalone="no"?>
<!-- Created with Inkscape (http://www.inkscape.org/) -->
<svg
   xmlns:dc="http://purl.org/dc/elements/1.1/"
   xmlns:cc="http://web.resource.org/cc/"
   xmlns:rdf="http://www.w3.org/1999/02/22-rdf-syntax-ns#"
   xmlns:svg="http://www.w3.org/2000/svg"
   xmlns="http://www.w3.org/2000/svg"
   xmlns:sodipodi="http://sodipodi.sourceforge.net/DTD/sodipodi-0.dtd"
   xmlns:inkscape="http://www.inkscape.org/namespaces/inkscape"
   sodipodi:docbase="C:\Development\projects\terrainosaurus\doc\Master's Thesis\src\resources"
   sodipodi:docname="Terrain Comparison - The Need for Adaptability.svg"
   inkscape:version="0.43+devel"
   sodipodi:version="0.32"
   id="svg2"
   width="318.89764"
   height="141.73228"
   inkscape:export-filename="C:\Development\projects\terrainosaurus\doc\Master's Thesis\xml\resources\Gaussian Curve Projection Illustration.png"
   inkscape:export-xdpi="300.00000"
   inkscape:export-ydpi="300.00000"
   version="1.0">
  <defs
     id="defs3">
    <marker
       inkscape:stockid="Arrow2Mend"
       orient="auto"
       refY="0"
       refX="0"
       id="Arrow2Mend"
       style="overflow:visible">
      <path
         sodipodi:nodetypes="cccc"
         id="path3204"
         style="font-size:12px;fill-rule:evenodd;stroke-width:0.625;stroke-linejoin:round"
         d="M 8.7185878,4.0337352 L -2.2072895,0.016013256 L 8.7185884,-4.0017078 C 6.97309,-1.6296469 6.9831476,1.6157441 8.7185878,4.0337352 z "
         transform="matrix(-0.6,0,0,-0.6,3,0)" />
    </marker>
    <marker
       inkscape:stockid="Arrow2Send"
       orient="auto"
       refY="0"
       refX="0"
       id="Arrow2Send"
       style="overflow:visible">
      <path
         sodipodi:nodetypes="cccc"
         id="path3201"
         style="font-size:12px;fill-rule:evenodd;stroke-width:0.625;stroke-linejoin:round"
         d="M 8.7185878,4.0337352 L -2.2072895,0.016013256 L 8.7185884,-4.0017078 C 6.97309,-1.6296469 6.9831476,1.6157441 8.7185878,4.0337352 z "
         transform="matrix(-0.3,0,0,-0.3,1.5,0)" />
    </marker>
    <marker
       inkscape:stockid="Arrow2Lend"
       orient="auto"
       refY="0"
       refX="0"
       id="Arrow2Lend"
       style="overflow:visible">
      <path
         sodipodi:nodetypes="cccc"
         id="path3207"
         style="font-size:12px;fill-rule:evenodd;stroke-width:0.625;stroke-linejoin:round"
         d="M 8.7185878,4.0337352 L -2.2072895,0.016013256 L 8.7185884,-4.0017078 C 6.97309,-1.6296469 6.9831476,1.6157441 8.7185878,4.0337352 z "
         transform="matrix(-1.1,0,0,-1.1,5.5,0)" />
    </marker>
  </defs>
  <sodipodi:namedview
     id="base"
     pagecolor="#ffffff"
     bordercolor="#666666"
     borderopacity="1.0"
     inkscape:pageopacity="0.0"
     inkscape:pageshadow="2"
     inkscape:zoom="5.6568543"
     inkscape:cx="141.66284"
     inkscape:cy="30.744296"
     inkscape:document-units="px"
     inkscape:current-layer="g3084"
     inkscape:guide-points="true"
     guidetolerance="0.10000000cm"
     gridspacingy="0.10000000cm"
     gridspacingx="0.10000000cm"
     gridoriginy="0.00000000cm"
     gridoriginx="0.00000000cm"
     gridtolerance="0.010000000cm"
     inkscape:window-width="1920"
     inkscape:window-height="1134"
     inkscape:window-x="-4"
     inkscape:window-y="-4"
     showguides="true"
     inkscape:guide-bbox="true"
     width="9.0000004cm"
     height="4.0000001cm"
     units="cm" />
  <metadata
     id="metadata4">
    <rdf:RDF>
      <cc:Work
         rdf:about="">
        <dc:format>image/svg+xml</dc:format>
        <dc:type
           rdf:resource="http://purl.org/dc/dcmitype/StillImage" />
      </cc:Work>
    </rdf:RDF>
  </metadata>
  <g
     inkscape:label="Layer 1"
     inkscape:groupmode="layer"
     id="layer1">
    <g
       transform="translate(6,-14)"
       id="g3084">
      <path
         style="fill:none;fill-opacity:0.75;fill-rule:evenodd;stroke:#c8c600;stroke-width:0.99999946px;stroke-linecap:butt;stroke-linejoin:miter;stroke-opacity:1"
         d="M 22.779192,130.63942 C 23.04938,130.4365 23.319568,130.23358 23.589757,130.03065 C 24.131622,129.62367 24.436671,128.70373 25.030761,127.50857 C 25.45573,126.65364 25.672174,125.50008 25.9494,124.6821 C 26.38078,123.40928 26.570708,122.44103 26.922077,121.46427 C 27.243746,120.57007 27.175334,118.95599 27.408416,117.85509 C 27.721525,116.37619 28.022161,115.67808 28.525194,114.07196 C 28.966262,112.6637 29.291879,111.24686 29.623959,109.81052 C 30.075535,107.85734 30.545368,107.66933 31.209063,107.15798 C 31.999033,106.54934 32.186891,105.9356 33.010318,106.24482 C 33.902508,106.57986 34.595677,107.59283 35.586114,107.59283 C 36.410306,107.59283 37.44201,103.42886 37.891716,101.85292 C 38.325795,100.33178 38.721777,98.74114 39.062533,96.93922 C 39.499948,94.62616 39.702315,92.40659 40.197322,90.1122 C 40.705597,87.75632 40.889574,84.93158 41.278075,82.45899 C 41.610274,80.34475 42.324408,78.92511 42.701068,77.06695 C 43.041368,75.38818 43.264121,74.01601 43.76381,72.32719 C 44.245197,70.70022 44.502487,69.58294 44.862575,67.80483 C 45.311698,65.58707 45.814472,63.18265 46.375628,61.10828 C 46.847053,59.3656 48.149667,58.95131 48.825333,58.36877 C 49.668806,57.64155 50.635869,57.76 51.527213,57.76 C 52.474835,57.76 53.063688,57.36749 53.886863,58.45574 C 54.7387,59.58188 55.154052,59.65563 55.706129,61.36917 C 56.529832,63.92583 56.864315,64.43843 58.191857,66.19592 C 59.268245,67.62091 60.432729,69.56411 61.18194,72.41415 C 61.724435,74.47782 62.536321,77.21403 63.037229,79.63252 C 63.638011,82.5332 64.390994,86.18236 64.730411,89.45994 C 65.085527,92.88905 65.708717,96.40108 66.333525,99.41781 C 67.152997,103.37437 67.516066,105.29482 69.089449,107.67979 C 70.077064,109.17685 70.776208,110.8505 71.683252,111.89776 C 72.987883,113.40404 74.343515,112.83536 75.555956,114.33287 C 76.83111,115.90785 77.425937,117.58472 78.221806,119.85536 C 78.927005,121.86731 79.28107,124.01593 79.806912,126.11708 C 80.211462,127.73356 80.382057,127.847 80.869654,128.76961 C 81.039291,129.09058 81.899018,130.46979 82.085145,130.7017"
         id="path2013"
         sodipodi:nodetypes="csssssssssssssssssssssssssssssssssc" />
      <text
         xml:space="preserve"
         style="font-size:10px;font-style:normal;font-variant:normal;font-weight:normal;font-stretch:normal;text-align:start;line-height:125%;writing-mode:lr-tb;text-anchor:start;fill:black;fill-opacity:1;stroke:none;stroke-width:1px;stroke-linecap:butt;stroke-linejoin:miter;stroke-opacity:1;font-family:sans"
         x="138.11484"
         y="147.33737"
         id="text1990"
         sodipodi:linespacing="125%"><tspan
           sodipodi:role="line"
           id="tspan1992"
           x="138.11484"
           y="147.33737">Elevation</tspan></text>
      <path
         sodipodi:nodetypes="csssssssssssssssssssssssssssssssssc"
         id="path4806"
         d="M 94.279192,130.63942 C 94.54938,130.4365 94.819568,130.23358 95.089757,130.03065 C 95.631622,129.62367 95.936671,128.70373 96.530761,127.50857 C 96.95573,126.65364 97.172174,125.50008 97.4494,124.6821 C 97.88078,123.40928 98.070708,122.44103 98.422077,121.46427 C 98.743746,120.57007 98.675334,118.95599 98.908416,117.85509 C 99.221525,116.37619 99.522161,115.67808 100.02519,114.07196 C 100.46626,112.6637 100.79188,111.24686 101.12396,109.81052 C 101.57553,107.85734 102.04537,107.66933 102.70906,107.15798 C 103.49903,106.54934 103.68689,105.9356 104.51032,106.24482 C 105.40251,106.57986 106.09568,107.59283 107.08611,107.59283 C 107.91031,107.59283 108.94201,103.42886 109.39172,101.85292 C 109.82579,100.33178 110.22178,98.74114 110.56253,96.93922 C 110.99995,94.62616 111.20231,92.40659 111.69732,90.1122 C 112.2056,87.75632 112.38957,84.93158 112.77807,82.45899 C 113.11027,80.34475 113.82441,78.92511 114.20107,77.06695 C 114.54137,75.38818 114.76412,74.01601 115.26381,72.32719 C 115.7452,70.70022 116.00249,69.58294 116.36257,67.80483 C 116.8117,65.58707 117.31447,63.18265 117.87563,61.10828 C 118.34705,59.3656 119.64967,58.95131 120.32533,58.36877 C 121.16881,57.64155 122.13587,57.76 123.02721,57.76 C 123.97483,57.76 124.56369,57.36749 125.38686,58.45574 C 126.2387,59.58188 126.65405,59.65563 127.20613,61.36917 C 128.02983,63.92583 128.36431,64.43843 129.69186,66.19592 C 130.76824,67.62091 131.93273,69.56411 132.68194,72.41415 C 133.22443,74.47782 134.03632,77.21403 134.53723,79.63252 C 135.13801,82.5332 135.89099,86.18236 136.23041,89.45994 C 136.58553,92.88905 137.20872,96.40108 137.83352,99.41781 C 138.653,103.37437 139.01607,105.29482 140.58945,107.67979 C 141.57706,109.17685 142.27621,110.8505 143.18325,111.89776 C 144.48788,113.40404 145.84351,112.83536 147.05596,114.33287 C 148.33111,115.90785 148.92594,117.58472 149.72181,119.85536 C 150.427,121.86731 150.78107,124.01593 151.30691,126.11708 C 151.71146,127.73356 151.88206,127.847 152.36965,128.76961 C 152.53929,129.09058 153.39902,130.46979 153.58514,130.7017"
         style="fill:none;fill-opacity:0.75;fill-rule:evenodd;stroke:#c80000;stroke-width:0.99999946px;stroke-linecap:butt;stroke-linejoin:miter;stroke-opacity:1" />
      <path
         style="fill:none;fill-opacity:0.75;fill-rule:evenodd;stroke:#00c81e;stroke-width:0.99999946px;stroke-linecap:butt;stroke-linejoin:miter;stroke-opacity:1"
         d="M 147.27919,130.63942 C 147.54938,130.4365 147.81957,130.23358 148.08976,130.03065 C 148.63162,129.62367 148.93667,128.70373 149.53076,127.50857 C 149.95573,126.65364 150.17217,125.50008 150.4494,124.6821 C 150.88078,123.40928 151.07071,122.44103 151.42208,121.46427 C 151.74375,120.57007 151.67533,118.95599 151.90842,117.85509 C 152.22152,116.37619 152.52216,115.67808 153.02519,114.07196 C 153.46626,112.6637 153.79188,111.24686 154.12396,109.81052 C 154.57553,107.85734 155.04537,107.66933 155.70906,107.15798 C 156.49903,106.54934 156.68689,105.9356 157.51032,106.24482 C 158.40251,106.57986 159.09568,107.59283 160.08611,107.59283 C 160.91031,107.59283 161.94201,103.42886 162.39172,101.85292 C 162.82579,100.33178 163.22178,98.74114 163.56253,96.93922 C 163.99995,94.62616 164.20231,92.40659 164.69732,90.1122 C 165.2056,87.75632 165.38957,84.93158 165.77807,82.45899 C 166.11027,80.34475 166.82441,78.92511 167.20107,77.06695 C 167.54137,75.38818 167.76412,74.01601 168.26381,72.32719 C 168.7452,70.70022 169.00249,69.58294 169.36257,67.80483 C 169.8117,65.58707 170.31447,63.18265 170.87563,61.10828 C 171.34705,59.3656 172.64967,58.95131 173.32533,58.36877 C 174.16881,57.64155 175.13587,57.76 176.02721,57.76 C 176.97483,57.76 177.56369,57.36749 178.38686,58.45574 C 179.2387,59.58188 179.65405,59.65563 180.20613,61.36917 C 181.02983,63.92583 181.36431,64.43843 182.69186,66.19592 C 183.76824,67.62091 184.93273,69.56411 185.68194,72.41415 C 186.22443,74.47782 187.03632,77.21403 187.53723,79.63252 C 188.13801,82.5332 188.89099,86.18236 189.23041,89.45994 C 189.58553,92.88905 190.20872,96.40108 190.83352,99.41781 C 191.653,103.37437 192.01607,105.29482 193.58945,107.67979 C 194.57706,109.17685 195.27621,110.8505 196.18325,111.89776 C 197.48788,113.40404 198.84351,112.83536 200.05596,114.33287 C 201.33111,115.90785 201.92594,117.58472 202.72181,119.85536 C 203.427,121.86731 203.78107,124.01593 204.30691,126.11708 C 204.71146,127.73356 204.88206,127.847 205.36965,128.76961 C 205.53929,129.09058 206.39902,130.46979 206.58514,130.7017"
         id="path4808"
         sodipodi:nodetypes="csssssssssssssssssssssssssssssssssc" />
      <path
         sodipodi:nodetypes="csssssssssssssssssssssssssssssssssc"
         id="path4810"
         d="M 225.27919,130.63942 C 225.54938,130.4365 225.81957,130.23358 226.08976,130.03065 C 226.63162,129.62367 226.93667,128.70373 227.53076,127.50857 C 227.95573,126.65364 228.17217,125.50008 228.4494,124.6821 C 228.88078,123.40928 229.07071,122.44103 229.42208,121.46427 C 229.74375,120.57007 229.67533,118.95599 229.90842,117.85509 C 230.22152,116.37619 230.52216,115.67808 231.02519,114.07196 C 231.46626,112.6637 231.79188,111.24686 232.12396,109.81052 C 232.57553,107.85734 233.04537,107.66933 233.70906,107.15798 C 234.49903,106.54934 234.68689,105.9356 235.51032,106.24482 C 236.40251,106.57986 237.09568,107.59283 238.08611,107.59283 C 238.91031,107.59283 239.94201,103.42886 240.39172,101.85292 C 240.82579,100.33178 241.22178,98.74114 241.56253,96.93922 C 241.99995,94.62616 242.20231,92.40659 242.69732,90.1122 C 243.2056,87.75632 243.38957,84.93158 243.77807,82.45899 C 244.11027,80.34475 244.82441,78.92511 245.20107,77.06695 C 245.54137,75.38818 245.76412,74.01601 246.26381,72.32719 C 246.7452,70.70022 247.00249,69.58294 247.36257,67.80483 C 247.8117,65.58707 248.31447,63.18265 248.87563,61.10828 C 249.34705,59.3656 250.64967,58.95131 251.32533,58.36877 C 252.16881,57.64155 253.13587,57.76 254.02721,57.76 C 254.97483,57.76 255.56369,57.36749 256.38686,58.45574 C 257.2387,59.58188 257.65405,59.65563 258.20613,61.36917 C 259.02983,63.92583 259.36431,64.43843 260.69186,66.19592 C 261.76824,67.62091 262.93273,69.56411 263.68194,72.41415 C 264.22443,74.47782 265.03632,77.21403 265.53723,79.63252 C 266.13801,82.5332 266.89099,86.18236 267.23041,89.45994 C 267.58553,92.88905 268.20872,96.40108 268.83352,99.41781 C 269.653,103.37437 270.01607,105.29482 271.58945,107.67979 C 272.57706,109.17685 273.27621,110.8505 274.18325,111.89776 C 275.48788,113.40404 276.84351,112.83536 278.05596,114.33287 C 279.33111,115.90785 279.92594,117.58472 280.72181,119.85536 C 281.427,121.86731 281.78107,124.01593 282.30691,126.11708 C 282.71146,127.73356 282.88206,127.847 283.36965,128.76961 C 283.53929,129.09058 284.39902,130.46979 284.58514,130.7017"
         style="fill:none;fill-opacity:0.75;fill-rule:evenodd;stroke:#0400c8;stroke-width:0.99999946px;stroke-linecap:butt;stroke-linejoin:miter;stroke-opacity:1" />
      <text
         xml:space="preserve"
         style="font-size:10px;font-style:normal;font-variant:normal;font-weight:normal;font-stretch:normal;text-align:start;line-height:125%;writing-mode:lr-tb;text-anchor:start;fill:#c8c600;fill-opacity:1;stroke:none;stroke-width:1px;stroke-linecap:butt;stroke-linejoin:miter;stroke-opacity:1;font-family:sans"
         x="26.526913"
         y="43.655861"
         id="text5697"
         sodipodi:linespacing="125%"><tspan
           sodipodi:role="line"
           id="tspan5699"
           x="26.526913"
           y="43.655861">Example 1</tspan></text>
      <text
         sodipodi:linespacing="125%"
         id="text5701"
         y="43.655861"
         x="95.469826"
         style="font-size:10px;font-style:normal;font-variant:normal;font-weight:normal;font-stretch:normal;text-align:start;line-height:125%;writing-mode:lr-tb;text-anchor:start;fill:#c80000;fill-opacity:1;stroke:none;stroke-width:1px;stroke-linecap:butt;stroke-linejoin:miter;stroke-opacity:1;font-family:sans"
         xml:space="preserve"><tspan
           y="43.655861"
           x="95.469826"
           id="tspan5703"
           sodipodi:role="line">Example 2</tspan></text>
      <text
         xml:space="preserve"
         style="font-size:10px;font-style:normal;font-variant:normal;font-weight:normal;font-stretch:normal;text-align:start;line-height:125%;writing-mode:lr-tb;text-anchor:start;fill:#00c81e;fill-opacity:1;stroke:none;stroke-width:1px;stroke-linecap:butt;stroke-linejoin:miter;stroke-opacity:1;font-family:sans"
         x="152.74547"
         y="43.655861"
         id="text5705"
         sodipodi:linespacing="125%"><tspan
           sodipodi:role="line"
           id="tspan5707"
           x="152.74547"
           y="43.655861">Example 3</tspan></text>
      <text
         sodipodi:linespacing="125%"
         id="text5709"
         y="43.655861"
         x="230.17366"
         style="font-size:10px;font-style:normal;font-variant:normal;font-weight:normal;font-stretch:normal;text-align:start;line-height:125%;writing-mode:lr-tb;text-anchor:start;fill:#0400c8;fill-opacity:1;stroke:none;stroke-width:1px;stroke-linecap:butt;stroke-linejoin:miter;stroke-opacity:1;font-family:sans"
         xml:space="preserve"><tspan
           y="43.655861"
           x="230.17366"
           id="tspan5711"
           sodipodi:role="line">Example 4</tspan></text>
      <g
         id="g1947"
         transform="translate(0,-142.8356)">
        <path
           id="path1302"
           style="fill:none;fill-opacity:0.75;fill-rule:evenodd;stroke:black;stroke-width:1px;stroke-linecap:square;stroke-linejoin:miter;stroke-opacity:1"
           d="M 6.1219,279.2419 L 6.1219,273.5647 L 304.6509,273.56552"
           sodipodi:nodetypes="ccc" />
        <text
           id="text1324"
           y="289.3949"
           x="3.1066344"
           style="font-size:12px;font-style:normal;font-variant:normal;font-weight:normal;font-stretch:normal;writing-mode:lr-tb;text-anchor:start;fill:black;fill-opacity:1;stroke:none;stroke-width:1px;stroke-linecap:butt;stroke-linejoin:miter;stroke-opacity:1;font-family:Times New Roman"
           xml:space="preserve"><tspan
             y="289.3949"
             x="3.1066344"
             id="tspan1326"
             sodipodi:role="line">0</tspan></text>
        <g
           transform="translate(-7.096901,-33.11193)"
           id="g2003">
          <text
             xml:space="preserve"
             style="font-size:12px;font-style:normal;font-weight:normal;fill:black;fill-opacity:1;stroke:none;stroke-width:1px;stroke-linecap:butt;stroke-linejoin:miter;stroke-opacity:1;font-family:Bitstream Vera Sans"
             x="302.78708"
             y="322.12677"
             id="text2362"><tspan
               sodipodi:role="line"
               id="tspan2364"
               x="302.78708"
               y="322.12677">∞</tspan></text>
          <path
             style="fill:none;fill-opacity:0.75;fill-rule:evenodd;stroke:black;stroke-width:1px;stroke-linecap:butt;stroke-linejoin:miter;marker-end:url(#Arrow2Mend);stroke-opacity:1"
             d="M 290.31879,318.53206 L 297.81177,318.53206"
             id="path2366" />
        </g>
      </g>
    </g>
  </g>
</svg>
